<?xml version="1.0" encoding="utf-8"?>
<!-- Generator: Adobe Illustrator 27.0.0, SVG Export Plug-In . SVG Version: 6.00 Build 0)  -->
<svg version="1.1" id="Layer_1" xmlns="http://www.w3.org/2000/svg" xmlns:xlink="http://www.w3.org/1999/xlink" x="0px" y="0px"
	 viewBox="0 0 595.28 841.89" style="enable-background:new 0 0 595.28 841.89;" xml:space="preserve">
<style type="text/css">
	.st0{fill:none;}
	.st1{fill:#414042;}
</style>
<g>
	<polygon class="st0" points="262.19,440.89 262.19,440.89 262.19,364.33 	"/>
	<path class="st0" d="M345.35,429.76c-0.54-0.22-1.06-0.49-1.55-0.81c-1.58-1.03-3.5-1.16-5.29-0.61c-0.68,0.21-1.35,0.55-1.81,1.11
		c-0.45,0.54-0.62,1.24-0.71,1.92c-0.15,1.14-0.14,2.29,0.07,3.42c0.21,1.16,0.76,2.23,0.88,3.4c0,0.02,0,0.05,0.01,0.07
		c0.02,0.23,0.01,0.47-0.02,0.7c4.58-2.48,8.9-5.39,12.91-8.66C348.31,430.51,346.73,430.32,345.35,429.76z"/>
	<path class="st0" d="M258.35,438.24c0-0.02,0-0.05,0.01-0.07c0.12-1.17,0.67-2.24,0.88-3.4c0.2-1.13,0.21-2.28,0.07-3.42
		c-0.09-0.68-0.26-1.38-0.71-1.92c-0.46-0.56-1.13-0.9-1.81-1.11c-1.79-0.55-3.71-0.42-5.29,0.61c-0.49,0.32-1.01,0.59-1.55,0.81
		c-1.39,0.57-2.97,0.75-4.48,0.53c4.01,3.27,8.33,6.18,12.91,8.66C258.34,438.71,258.33,438.48,258.35,438.24z"/>
	<polygon class="st0" points="333.08,440.89 333.08,440.89 333.08,364.33 	"/>
	<path class="st0" d="M331.42,441.06c-1.6,0.11-2.3-1.42-2.19-2.81c0-0.02,0-0.05,0.01-0.07c0.12-1.17,0.67-2.24,0.88-3.4
		c0.2-1.13,0.21-2.28,0.07-3.42c-0.09-0.68-0.26-1.38-0.71-1.92c-0.46-0.56-1.13-0.9-1.81-1.11c-1.79-0.55-3.71-0.42-5.29,0.61
		c-0.49,0.32-1.01,0.59-1.55,0.81c-2.84,1.16-6.47,0.72-8.68-1.51c-2.84-2.87-3.23-6.86-1.09-10.29c0.86-1.37,1.88-2.68,2.39-4.23
		c0.14-0.42,0.42-1.8,0.34-4.18c-0.08-2.38,0.61-4.16,0.61-4.16c1.15-3.27,2.14-4.02,4.14-6.99c2-2.97,2.78-4.52,2.86-7
		c0.07-2.48-0.68-3.75-0.69-6.56c-0.01-1.25,0.34-2.49,0.94-3.58c0.57-1.04,1.43-1.8,2.22-2.67c0.6-0.66,1.17-1.34,1.68-2.07
		c1.36-1.94,1.49-4.27,1.96-6.53c0.57-2.73,2.8-5.13,5.57-5.67c0,0,0,0,0,0c0,0,0,0,0,0c2.77,0.54,5,2.94,5.57,5.67
		c0.47,2.26,0.6,4.58,1.96,6.53c0.51,0.73,1.09,1.41,1.68,2.07c0.79,0.87,1.65,1.63,2.22,2.67c0.6,1.09,0.95,2.33,0.94,3.58
		c-0.01,2.81-0.76,4.08-0.69,6.56c0.07,2.48,0.86,4.03,2.86,7c2,2.97,2.99,3.72,4.14,6.99c0,0,0.69,1.77,0.61,4.16
		c-0.08,2.38,0.2,3.76,0.34,4.18c0.51,1.55,1.54,2.86,2.39,4.23c1.31,2.1,1.67,4.4,1.1,6.53c14.84-14.93,24.01-35.5,24.01-58.21
		c0-45.61-36.97-82.58-82.58-82.58s-82.58,36.97-82.58,82.58c0,22.71,9.17,43.28,24.01,58.21c-0.56-2.13-0.2-4.43,1.1-6.53
		c0.86-1.37,1.88-2.68,2.39-4.23c0.14-0.42,0.42-1.8,0.34-4.18c-0.08-2.38,0.61-4.16,0.61-4.16c1.15-3.27,2.14-4.02,4.14-6.99
		c2-2.97,2.78-4.52,2.86-7c0.07-2.48-0.68-3.75-0.69-6.56c-0.01-1.25,0.34-2.49,0.94-3.58c0.57-1.04,1.43-1.8,2.22-2.67
		c0.6-0.66,1.17-1.34,1.68-2.07c1.36-1.94,1.49-4.27,1.96-6.53c0.57-2.73,2.8-5.13,5.57-5.67c0,0,0,0,0,0c0,0,0,0,0,0
		c2.77,0.54,5,2.94,5.57,5.67c0.47,2.26,0.6,4.58,1.96,6.53c0.51,0.73,1.09,1.41,1.68,2.07c0.79,0.87,1.65,1.63,2.22,2.67
		c0.6,1.09,0.95,2.33,0.94,3.58c-0.01,2.81-0.76,4.08-0.69,6.56c0.07,2.48,0.86,4.03,2.86,7c2,2.97,2.99,3.72,4.14,6.99
		c0,0,0.69,1.77,0.61,4.16c-0.08,2.38,0.2,3.76,0.34,4.18c0.51,1.55,1.54,2.86,2.39,4.23c2.14,3.43,1.75,7.42-1.09,10.29
		c-2.21,2.23-5.84,2.67-8.68,1.51c-0.54-0.22-1.06-0.49-1.55-0.81c-1.58-1.03-3.5-1.16-5.29-0.61c-0.68,0.21-1.35,0.55-1.81,1.11
		c-0.45,0.54-0.62,1.24-0.71,1.92c-0.15,1.14-0.14,2.29,0.07,3.42c0.21,1.16,0.76,2.23,0.88,3.4c0,0.02,0,0.05,0.01,0.07
		c0.12,1.39-0.59,2.92-2.19,2.81h-1.3c10.65,5,22.54,7.81,35.08,7.81c12.54,0,24.43-2.8,35.08-7.81H331.42z"/>
	<path d="M262.19,364.33c-2.77,0.54-5,2.94-5.57,5.67c-0.47,2.26-0.6,4.58-1.96,6.53c-0.51,0.73-1.09,1.41-1.68,2.07
		c-0.79,0.87-1.65,1.63-2.22,2.67c-0.6,1.09-0.95,2.33-0.94,3.58c0.01,2.81,0.76,4.08,0.69,6.56c-0.07,2.48-0.86,4.03-2.86,7
		c-2,2.97-2.99,3.72-4.14,6.99c0,0-0.69,1.77-0.61,4.16c0.08,2.38-0.2,3.76-0.34,4.18c-0.51,1.55-1.54,2.86-2.39,4.23
		c-1.31,2.1-1.67,4.4-1.1,6.53c2.03,2.04,4.16,3.97,6.39,5.79c1.51,0.22,3.09,0.04,4.48-0.53c0.54-0.22,1.06-0.49,1.55-0.81
		c1.58-1.03,3.5-1.16,5.29-0.61c0.68,0.21,1.35,0.55,1.81,1.11c0.45,0.54,0.62,1.24,0.71,1.92c0.15,1.14,0.14,2.29-0.07,3.42
		c-0.21,1.16-0.76,2.23-0.88,3.4c0,0.02,0,0.05-0.01,0.07c-0.02,0.23-0.01,0.47,0.02,0.7c1.26,0.68,2.53,1.33,3.83,1.94
		L262.19,364.33C262.19,364.33,262.19,364.33,262.19,364.33z"/>
	<path class="st1" d="M266.04,438.24c0-0.02,0-0.05-0.01-0.07c-0.12-1.17-0.67-2.24-0.88-3.4c-0.2-1.13-0.21-2.28-0.07-3.42
		c0.09-0.68,0.26-1.38,0.71-1.92c0.46-0.56,1.13-0.9,1.81-1.11c1.79-0.55,3.71-0.42,5.29,0.61c0.49,0.32,1.01,0.59,1.55,0.81
		c2.84,1.16,6.47,0.72,8.68-1.51c2.84-2.87,3.23-6.86,1.09-10.29c-0.86-1.37-1.88-2.68-2.39-4.23c-0.14-0.42-0.42-1.8-0.34-4.18
		c0.08-2.38-0.61-4.16-0.61-4.16c-1.15-3.27-2.14-4.02-4.14-6.99c-2-2.97-2.78-4.52-2.86-7c-0.07-2.48,0.68-3.75,0.69-6.56
		c0.01-1.25-0.34-2.49-0.94-3.58c-0.57-1.04-1.43-1.8-2.22-2.67c-0.6-0.66-1.17-1.34-1.68-2.07c-1.36-1.94-1.49-4.27-1.96-6.53
		c-0.57-2.73-2.8-5.13-5.57-5.67c0,0,0,0,0,0v76.55c0.12,0.06,0.24,0.11,0.36,0.17h1.3C265.45,441.16,266.16,439.64,266.04,438.24z"
		/>
	<path d="M333.08,364.33c-2.77,0.54-5,2.94-5.57,5.67c-0.47,2.26-0.6,4.58-1.96,6.53c-0.51,0.73-1.09,1.41-1.68,2.07
		c-0.79,0.87-1.65,1.63-2.22,2.67c-0.6,1.09-0.95,2.33-0.94,3.58c0.01,2.81,0.76,4.08,0.69,6.56c-0.07,2.48-0.86,4.03-2.86,7
		c-2,2.97-2.99,3.72-4.14,6.99c0,0-0.69,1.77-0.61,4.16c0.08,2.38-0.2,3.76-0.34,4.18c-0.51,1.55-1.54,2.86-2.39,4.23
		c-2.14,3.43-1.75,7.42,1.09,10.29c2.21,2.23,5.84,2.67,8.68,1.51c0.54-0.22,1.06-0.49,1.55-0.81c1.58-1.03,3.5-1.16,5.29-0.61
		c0.68,0.21,1.35,0.55,1.81,1.11c0.45,0.54,0.62,1.24,0.71,1.92c0.15,1.14,0.14,2.29-0.07,3.42c-0.21,1.16-0.76,2.23-0.88,3.4
		c0,0.02,0,0.05-0.01,0.07c-0.12,1.39,0.59,2.92,2.19,2.81h1.3c0.12-0.06,0.24-0.11,0.36-0.17L333.08,364.33
		C333.08,364.33,333.08,364.33,333.08,364.33z"/>
	<path class="st1" d="M355.11,417.96c-0.86-1.37-1.88-2.68-2.39-4.23c-0.14-0.42-0.42-1.8-0.34-4.18c0.08-2.38-0.61-4.16-0.61-4.16
		c-1.15-3.27-2.14-4.02-4.14-6.99c-2-2.97-2.78-4.52-2.86-7c-0.07-2.48,0.68-3.75,0.69-6.56c0.01-1.25-0.34-2.49-0.94-3.58
		c-0.57-1.04-1.43-1.8-2.22-2.67c-0.6-0.66-1.17-1.34-1.68-2.07c-1.36-1.94-1.49-4.27-1.96-6.53c-0.57-2.73-2.8-5.13-5.57-5.67
		c0,0,0,0,0,0v76.55c1.29-0.62,2.57-1.26,3.83-1.94c0.03-0.23,0.04-0.47,0.02-0.7c0-0.02,0-0.05-0.01-0.07
		c-0.12-1.17-0.67-2.24-0.88-3.4c-0.2-1.13-0.21-2.28-0.07-3.42c0.09-0.68,0.26-1.38,0.71-1.92c0.46-0.56,1.13-0.9,1.81-1.11
		c1.79-0.55,3.71-0.42,5.29,0.61c0.49,0.32,1.01,0.59,1.55,0.81c1.39,0.57,2.97,0.75,4.48,0.53c2.23-1.82,4.36-3.75,6.39-5.79
		C356.78,422.36,356.42,420.06,355.11,417.96z"/>
	<path d="M297.64,332.56c-4.2,0.82-7.58,4.46-8.44,8.59c-0.71,3.42-0.91,6.95-2.97,9.89c-0.77,1.1-1.65,2.14-2.55,3.14
		c-1.2,1.32-2.49,2.46-3.36,4.04c-0.91,1.66-1.44,3.53-1.43,5.42c0.02,4.25,1.16,6.19,1.05,9.94c-0.11,3.75-1.3,6.11-4.33,10.6
		c-3.02,4.49-4.53,5.64-6.27,10.59c0,0-1.04,2.69-0.93,6.3c0.11,3.61-0.31,5.69-0.52,6.34c-0.77,2.35-2.33,4.33-3.62,6.41
		c-3.24,5.2-2.65,11.24,1.65,15.59c3.35,3.38,8.85,4.04,13.15,2.29c0.82-0.33,1.61-0.75,2.35-1.23c2.4-1.56,5.31-1.75,8.02-0.93
		c1.03,0.31,2.05,0.83,2.75,1.67c0.68,0.82,0.94,1.88,1.07,2.91c0.22,1.72,0.21,3.47-0.1,5.18c-0.32,1.75-1.15,3.37-1.33,5.15
		c0,0.03-0.01,0.07-0.01,0.1c-0.18,2.11,0.89,4.42,3.31,4.26h2.48h0.04L297.64,332.56C297.64,332.56,297.64,332.56,297.64,332.56z"
		/>
	<path class="st1" d="M297.64,332.56c4.2,0.82,7.58,4.46,8.44,8.59c0.71,3.42,0.91,6.95,2.97,9.89c0.77,1.1,1.65,2.14,2.55,3.14
		c1.2,1.32,2.49,2.46,3.36,4.04c0.91,1.66,1.44,3.53,1.43,5.42c-0.02,4.25-1.16,6.19-1.05,9.94c0.11,3.75,1.3,6.11,4.33,10.6
		c3.02,4.49,4.53,5.64,6.27,10.59c0,0,1.04,2.69,0.93,6.3c-0.11,3.61,0.31,5.69,0.52,6.34c0.77,2.35,2.33,4.33,3.62,6.41
		c3.24,5.2,2.65,11.24-1.65,15.59c-3.35,3.38-8.85,4.04-13.15,2.29c-0.82-0.33-1.61-0.75-2.35-1.23c-2.4-1.56-5.31-1.75-8.02-0.93
		c-1.03,0.31-2.05,0.83-2.75,1.67c-0.68,0.82-0.94,1.88-1.07,2.91c-0.22,1.72-0.21,3.47,0.1,5.18c0.32,1.75,1.15,3.37,1.33,5.15
		c0,0.03,0.01,0.07,0.01,0.1c0.18,2.11-0.89,4.42-3.31,4.26h-2.48h-0.04L297.64,332.56C297.64,332.56,297.64,332.56,297.64,332.56z"
		/>
	<g>
		<path d="M297.64,288.66c42.8,0,77.62,34.82,77.62,77.62s-34.82,77.62-77.62,77.62s-77.62-34.82-77.62-77.62
			S254.84,288.66,297.64,288.66 M297.64,283.7c-45.61,0-82.58,36.97-82.58,82.58s36.97,82.58,82.58,82.58s82.58-36.97,82.58-82.58
			S343.25,283.7,297.64,283.7L297.64,283.7z"/>
	</g>
	<polygon class="st0" points="262.11,441.26 262.11,441.26 262.11,364.52 	"/>
	<path class="st0" d="M345.46,430.1c-0.54-0.22-1.06-0.5-1.55-0.81c-1.59-1.03-3.51-1.16-5.31-0.61c-0.68,0.21-1.36,0.55-1.82,1.11
		c-0.45,0.54-0.62,1.24-0.71,1.92c-0.15,1.14-0.14,2.3,0.07,3.43c0.21,1.16,0.76,2.23,0.88,3.41c0,0.02,0,0.05,0.01,0.07
		c0.02,0.23,0.01,0.47-0.02,0.7c4.59-2.49,8.93-5.4,12.94-8.68C348.43,430.85,346.85,430.67,345.46,430.1z"/>
	<path class="st0" d="M258.26,438.6c0-0.02,0-0.05,0.01-0.07c0.12-1.18,0.67-2.25,0.88-3.41c0.21-1.13,0.21-2.29,0.07-3.43
		c-0.09-0.68-0.26-1.38-0.71-1.92c-0.46-0.56-1.13-0.9-1.82-1.11c-1.79-0.55-3.72-0.42-5.31,0.61c-0.49,0.32-1.01,0.59-1.55,0.81
		c-1.39,0.57-2.97,0.75-4.49,0.53c4.02,3.28,8.35,6.19,12.94,8.68C258.25,439.07,258.24,438.84,258.26,438.6z"/>
	<polygon class="st0" points="333.16,441.26 333.16,441.26 333.16,364.52 	"/>
	<path class="st0" d="M331.5,441.43c-1.6,0.11-2.31-1.42-2.19-2.82c0-0.02,0-0.05,0.01-0.07c0.12-1.18,0.67-2.25,0.88-3.41
		c0.21-1.13,0.21-2.29,0.07-3.43c-0.09-0.68-0.26-1.38-0.71-1.92c-0.46-0.56-1.13-0.9-1.82-1.11c-1.79-0.55-3.72-0.42-5.31,0.61
		c-0.49,0.32-1.01,0.59-1.55,0.81c-2.84,1.16-6.48,0.72-8.7-1.51c-2.85-2.87-3.24-6.87-1.09-10.31c0.86-1.37,1.89-2.68,2.4-4.24
		c0.14-0.43,0.42-1.8,0.34-4.19c-0.08-2.39,0.61-4.17,0.61-4.17c1.15-3.27,2.15-4.03,4.15-7c2-2.97,2.79-4.53,2.86-7.01
		c0.07-2.48-0.68-3.76-0.69-6.57c-0.01-1.25,0.34-2.49,0.94-3.59c0.57-1.04,1.43-1.8,2.22-2.67c0.6-0.66,1.18-1.34,1.69-2.08
		c1.37-1.95,1.49-4.28,1.97-6.54c0.57-2.74,2.81-5.15,5.58-5.69c0,0,0,0,0,0c0,0,0,0,0,0c2.78,0.54,5.01,2.95,5.58,5.69
		c0.47,2.26,0.6,4.6,1.97,6.54c0.51,0.73,1.09,1.41,1.69,2.08c0.79,0.87,1.65,1.63,2.22,2.67c0.6,1.1,0.95,2.33,0.94,3.59
		c-0.01,2.81-0.76,4.09-0.69,6.57c0.07,2.48,0.86,4.04,2.86,7.01c2,2.97,2.99,3.73,4.15,7c0,0,0.69,1.78,0.61,4.17
		c-0.08,2.39,0.21,3.77,0.34,4.19c0.51,1.56,1.54,2.87,2.4,4.24c1.31,2.1,1.67,4.41,1.11,6.55c14.87-14.97,24.06-35.58,24.06-58.35
		c0-45.72-37.06-82.78-82.78-82.78c-45.72,0-82.78,37.06-82.78,82.78c0,22.77,9.19,43.38,24.06,58.35
		c-0.56-2.14-0.21-4.44,1.11-6.55c0.86-1.37,1.89-2.68,2.4-4.24c0.14-0.43,0.42-1.8,0.34-4.19c-0.08-2.39,0.61-4.17,0.61-4.17
		c1.15-3.27,2.15-4.03,4.15-7c2-2.97,2.79-4.53,2.86-7.01c0.07-2.48-0.68-3.76-0.69-6.57c-0.01-1.25,0.34-2.49,0.94-3.59
		c0.57-1.04,1.43-1.8,2.22-2.67c0.6-0.66,1.18-1.34,1.69-2.08c1.37-1.95,1.49-4.28,1.97-6.54c0.57-2.74,2.81-5.15,5.58-5.69
		c0,0,0,0,0,0c0,0,0,0,0,0c2.78,0.54,5.01,2.95,5.58,5.69c0.47,2.26,0.6,4.6,1.97,6.54c0.51,0.73,1.09,1.41,1.69,2.08
		c0.79,0.87,1.65,1.63,2.22,2.67c0.6,1.1,0.95,2.33,0.94,3.59c-0.01,2.81-0.76,4.09-0.69,6.57c0.07,2.48,0.86,4.04,2.86,7.01
		c2,2.97,2.99,3.73,4.15,7c0,0,0.69,1.78,0.61,4.17c-0.08,2.39,0.21,3.77,0.34,4.19c0.51,1.56,1.54,2.87,2.4,4.24
		c2.15,3.44,1.76,7.44-1.09,10.31c-2.22,2.24-5.85,2.67-8.7,1.51c-0.54-0.22-1.06-0.5-1.55-0.81c-1.59-1.03-3.51-1.16-5.31-0.61
		c-0.68,0.21-1.36,0.55-1.82,1.11c-0.45,0.54-0.62,1.24-0.71,1.92c-0.15,1.14-0.14,2.3,0.07,3.43c0.21,1.16,0.76,2.23,0.88,3.41
		c0,0.02,0,0.05,0.01,0.07c0.12,1.4-0.59,2.93-2.19,2.82h-1.3c10.67,5.02,22.59,7.82,35.16,7.82c12.57,0,24.49-2.81,35.16-7.82
		H331.5z"/>
	<g>
		<path d="M247.74,480.09v-12.74c0-8.04,4.91-12.48,13.31-12.48c8.35,0,12.64,3.71,12.64,10.91v0.52c0,0.57-0.31,0.94-0.89,0.94
			h-2.51c-0.57,0-0.89-0.31-0.89-0.89v-0.57c0-4.86-2.51-7.31-8.35-7.31c-5.74,0-8.82,3.03-8.82,8.51v13.31
			c0,5.64,3.13,8.67,8.93,8.67c5.74,0,8.41-2.51,8.41-7.52v-4.23h-7.41c-0.99,0-1.51-0.52-1.51-1.41v-0.78
			c0-0.94,0.52-1.46,1.51-1.46h10.02c1.1,0,1.62,0.57,1.62,1.62v6.27c0,7.21-4.54,11.12-12.69,11.12
			C252.7,492.57,247.74,488.13,247.74,480.09z"/>
		<path d="M309.23,491.41V456c0-0.82,0.54-1.36,1.36-1.36h1.91c0.82,0,1.36,0.54,1.36,1.36v35.41c0,0.82-0.54,1.36-1.36,1.36h-1.91
			C309.77,492.77,309.23,492.22,309.23,491.41z"/>
		<path d="M320.41,491.24v-34.59c0-1.36,0.76-2.18,2.23-2.18h1.47c1.36,0,1.91,0.54,2.61,1.8l16.45,29.2v-29.63
			c0-0.82,0.55-1.36,1.36-1.36h1.63c0.82,0,1.36,0.54,1.36,1.36v34.59c0,1.36-0.76,2.18-2.23,2.18H344c-1.36,0-1.96-0.54-2.67-1.8
			l-16.61-29.31v29.74c0,0.82-0.49,1.36-1.36,1.36h-1.58C320.95,492.6,320.41,492.05,320.41,491.24z"/>
		<g>
			<path d="M298.83,491.78l-10.08-14.25c-0.58-0.86-0.88-1.4-0.88-2.11v-0.11c0-1.13,0.68-1.78,1.71-1.78h2.24
				c4.48,0,6.77-2.16,6.77-6.42v-2.21c0-4.32-2.29-6.48-6.77-6.48h-7.84v32.66c0,0.81-0.49,1.35-1.22,1.35h-1.7
				c-0.73,0-1.22-0.54-1.22-1.35v-34.01c0-1.51,0.83-2.43,2.19-2.43h9.79c7.16,0,10.96,3.62,10.96,10.42v2
				c0,6.21-3.22,9.61-9.3,10.04l8.72,11.99c0.83,1.13,0.58,2.43-0.39,3.24C300.88,493.08,299.61,492.86,298.83,491.78z"/>
			<rect x="283.46" y="473.53" width="6.12" height="3.76"/>
		</g>
	</g>
</g>
</svg>
