<?xml version="1.0" encoding="utf-8"?>
<!-- Generator: Adobe Illustrator 27.0.0, SVG Export Plug-In . SVG Version: 6.00 Build 0)  -->
<svg version="1.1" id="Layer_1" xmlns="http://www.w3.org/2000/svg" xmlns:xlink="http://www.w3.org/1999/xlink" x="0px" y="0px"
	 viewBox="0 0 768 768" style="enable-background:new 0 0 768 768;" xml:space="preserve">
<style type="text/css">
	.st0{fill:url(#SVGID_1_);}
	.st1{fill:url(#SVGID_00000081614207433692294910000015798786389004033717_);}
	.st2{fill:url(#SVGID_00000087383314060129985540000012673951949745390523_);}
	.st3{fill:url(#SVGID_00000145043456717712421330000014930726365613885621_);stroke:#000000;stroke-width:4;stroke-miterlimit:10;}
	.st4{stroke:#000000;stroke-width:4;stroke-miterlimit:10;}
	.st5{stroke:#000000;stroke-width:0.5;stroke-miterlimit:10;}
	.st6{fill:none;stroke:#000000;stroke-width:0.5;stroke-miterlimit:10;}
	.st7{fill:url(#SVGID_00000170988276379001462160000003221634111468209343_);stroke:#000000;stroke-width:4;stroke-miterlimit:10;}
	.st8{fill:none;stroke:#000000;stroke-width:0.75;stroke-miterlimit:10;}
	.st9{fill:#231F20;}
	.st10{fill:none;stroke:#020101;stroke-width:3;stroke-miterlimit:10;}
	.st11{fill:url(#SVGID_00000180352892742443427590000007478945561184261535_);}
	.st12{fill:url(#SVGID_00000147216611200001005460000017428125731942752167_);}
	.st13{fill:url(#SVGID_00000095330966807890598450000001104702422115080864_);}
	.st14{fill:url(#SVGID_00000116230392603756080000000013907305745442789281_);}
	.st15{fill:url(#SVGID_00000100346898855657558190000013940645339890619558_);}
	.st16{fill:url(#SVGID_00000064327397049379037440000005179006210354071195_);}
	.st17{fill:url(#SVGID_00000180356959292005581590000018410584322785080738_);stroke:#020101;stroke-width:5;stroke-miterlimit:10;}
	.st18{fill:url(#SVGID_00000055683292414022940410000014407753860183229838_);}
	.st19{fill:url(#SVGID_00000138566270947189116450000000507806575947265445_);}
	.st20{fill:url(#SVGID_00000180328311909210499560000002911518317349548183_);}
	.st21{fill:url(#SVGID_00000141434701722788696880000010196213430330059929_);}
	.st22{fill:url(#SVGID_00000013173007368838319420000009219721495309264527_);}
	.st23{fill:url(#SVGID_00000115477142484594381780000009517993989893969841_);}
	.st24{fill:url(#SVGID_00000094586827373105426820000018421422671902903212_);}
	.st25{fill:url(#SVGID_00000183215328593180519630000009459843285033257874_);}
	.st26{fill:url(#SVGID_00000142882218567340688700000015049332976457681073_);}
	.st27{fill:url(#SVGID_00000036247277368589772030000005895350203312963514_);}
	.st28{fill:url(#SVGID_00000110455404222448707920000015691355360519204011_);}
	.st29{fill:url(#SVGID_00000129900358792301934470000005055086720839865275_);}
</style>
<linearGradient id="SVGID_1_" gradientUnits="userSpaceOnUse" x1="384" y1="0" x2="384" y2="768">
	<stop  offset="0.3491" style="stop-color:#7E007F"/>
	<stop  offset="0.7301" style="stop-color:#59005B"/>
	<stop  offset="1" style="stop-color:#3D003F"/>
	<stop  offset="1" style="stop-color:#130000"/>
</linearGradient>
<rect x="0" class="st0" width="768" height="768"/>
<linearGradient id="SVGID_00000170988864323736374520000001745099230533523893_" gradientUnits="userSpaceOnUse" x1="-385" y1="0" x2="-385" y2="768">
	<stop  offset="0.0302" style="stop-color:#FF9B15"/>
	<stop  offset="0.4296" style="stop-color:#F9721C"/>
	<stop  offset="1" style="stop-color:#F15124"/>
</linearGradient>
<rect x="-769" style="fill:url(#SVGID_00000170988864323736374520000001745099230533523893_);" width="768" height="768"/>
<linearGradient id="SVGID_00000046329041586288063300000016343085775007505843_" gradientUnits="userSpaceOnUse" x1="-1154" y1="0" x2="-1154" y2="768">
	<stop  offset="0.1583" style="stop-color:#BF0500"/>
	<stop  offset="1" style="stop-color:#4B0000"/>
</linearGradient>
<rect x="-1538" style="fill:url(#SVGID_00000046329041586288063300000016343085775007505843_);" width="768" height="768"/>
<radialGradient id="SVGID_00000058550194352644924050000004034144715691921546_" cx="-1154" cy="384" r="83.875" gradientUnits="userSpaceOnUse">
	<stop  offset="0.407" style="stop-color:#BF0000"/>
	<stop  offset="0.7" style="stop-color:#B50000"/>
	<stop  offset="0.9849" style="stop-color:#550700"/>
</radialGradient>
<circle style="fill:url(#SVGID_00000058550194352644924050000004034144715691921546_);stroke:#000000;stroke-width:4;stroke-miterlimit:10;" cx="-1154" cy="384" r="83.88"/>
<circle class="st4" cx="-1154" cy="383.38" r="14"/>
<path class="st5" d="M-1147.5,329.88C-1147.49,329.88-1147.5,329.88-1147.5,329.88c1.26,0.85,2.06,1.99,2.91,3.24
	c0.01,0.01,0.01,0.01,0.01,0.01c1.32,1.92,2.08,4.24,2.08,6.75c0,0.55-0.04,1.1-0.11,1.63c-0.79,5.86-5.81,10.37-11.89,10.37
	s-11.1-4.51-11.89-10.37c-0.07-0.53-0.11-1.08-0.11-1.63c0-3.08,1.15-5.88,3.05-8h-0.05c0,0,6-7,11-9c4.73-1.89,13-2,16,2
	c0,0-7.84-2.16-11,1C-1148.5,326.88-1148.57,328.4-1147.5,329.88z"/>
<path class="st5" d="M-1107.34,411.22C-1107.35,411.23-1107.34,411.22-1107.34,411.22c-1.26,0.84-2.62,1.15-4.1,1.46
	c-0.01,0.01-0.01,0.01-0.01,0.01c-2.28,0.49-4.71,0.32-7.03-0.63c-0.51-0.21-1-0.45-1.47-0.72c-5.12-2.95-7.39-9.31-5.09-14.93
	c2.3-5.63,8.38-8.56,14.1-7.07c0.52,0.14,1.04,0.31,1.55,0.52c2.85,1.17,5.01,3.29,6.25,5.85l0.02-0.05c0,0,4.2,8.21,4.16,13.59
	c-0.04,5.1-3.08,12.79-7.92,14.05c0,0,4.97-6.43,3.24-10.56C-1104.19,411.44-1105.57,410.79-1107.34,411.22z"/>
<path class="st6" d="M-1174.93,346.78c21.3-11.7,48.05-3.93,59.75,17.37c11.7,21.3,3.93,48.05-17.37,59.75
	c-17.69,9.72-39.14,6-52.6-7.74c4.76-3.51,6.29-10.09,3.36-15.41c-2.93-5.33-9.3-7.56-14.81-5.43
	C-1200.98,376.6-1192.62,356.5-1174.93,346.78z"/>
<path class="st5" d="M-1204.44,405.21C-1204.44,405.2-1204.44,405.21-1204.44,405.21c0.14-1.51,0.75-2.76,1.44-4.11
	c0-0.01,0-0.01,0-0.01c1.05-2.08,2.71-3.86,4.91-5.07c0.48-0.26,0.98-0.49,1.48-0.69c5.52-2.13,11.89,0.1,14.81,5.43
	c2.93,5.33,1.39,11.9-3.36,15.41c-0.43,0.32-0.89,0.62-1.38,0.88c-2.7,1.48-5.71,1.82-8.48,1.18l0.02,0.04c0,0-9.02-1.89-13.19-5.31
	c-3.94-3.24-8.01-10.43-5.95-14.99c0,0,1.88,7.91,6.17,9.16C-1206.59,407.53-1205.22,406.86-1204.44,405.21z"/>
<g>
	
		<radialGradient id="SVGID_00000078028391509136882540000005393676572467706289_" cx="384" cy="384" r="84" gradientUnits="userSpaceOnUse">
		<stop  offset="0" style="stop-color:#A37FA5"/>
		<stop  offset="0.6055" style="stop-color:#A375A5"/>
		<stop  offset="1" style="stop-color:#A354A5"/>
	</radialGradient>
	
		<circle style="fill:url(#SVGID_00000078028391509136882540000005393676572467706289_);stroke:#000000;stroke-width:4;stroke-miterlimit:10;" cx="384" cy="384" r="84"/>
	<path class="st5" d="M389.39,357.68C389.4,357.68,389.39,357.68,389.39,357.68c0.84,0.57,1.38,1.33,1.95,2.17
		c0.01,0.01,0.01,0.01,0.01,0.01c0.88,1.29,1.39,2.84,1.39,4.52c0,0.37-0.03,0.74-0.07,1.09c-0.53,3.93-3.89,6.95-7.96,6.95
		s-7.44-3.02-7.96-6.95c-0.05-0.36-0.07-0.72-0.07-1.09c0-2.06,0.77-3.94,2.04-5.36h-0.03c0,0,4.02-4.69,7.37-6.03
		c3.17-1.27,8.71-1.34,10.72,1.34c0,0-5.25-1.45-7.37,0.67C388.72,355.67,388.67,356.69,389.39,357.68z"/>
	<circle class="st8" cx="385.16" cy="386.32" r="23.17"/>
	<path class="st5" d="M407.42,403.24C407.41,403.24,407.42,403.24,407.42,403.24c-0.98,0.28-1.91,0.2-2.92,0.09
		c-0.01,0-0.01,0-0.01,0c-1.55-0.15-3.07-0.77-4.35-1.85c-0.28-0.24-0.55-0.5-0.79-0.76c-2.66-2.93-2.8-7.45-0.18-10.57
		c2.63-3.11,7.1-3.74,10.44-1.61c0.3,0.19,0.6,0.41,0.88,0.65c1.58,1.33,2.51,3.13,2.78,5.02l0.02-0.03c0,0,0.99,6.1-0.14,9.52
		c-1.07,3.24-4.59,7.52-7.93,7.33c0,0,4.49-3.08,4.24-6.07C409.39,404.02,408.64,403.33,407.42,403.24z"/>
	<path class="st5" d="M358.51,394.74C358.51,394.74,358.51,394.74,358.51,394.74c0.46-0.91,1.15-1.54,1.91-2.21
		c0.01-0.01,0.01-0.01,0.01-0.01c1.17-1.04,2.64-1.74,4.31-1.95c0.37-0.05,0.73-0.07,1.09-0.06c3.96,0.03,7.38,2.99,7.89,7.03
		c0.51,4.04-2.07,7.75-5.9,8.77c-0.35,0.09-0.71,0.16-1.07,0.21c-2.05,0.26-4-0.27-5.57-1.36l0,0.03c0,0-5.15-3.4-6.9-6.56
		c-1.65-2.99-2.42-8.47-0.01-10.8c0,0-0.78,5.39,1.58,7.23C356.6,395.66,357.62,395.58,358.51,394.74z"/>
	<circle class="st8" cx="384.26" cy="385.92" r="45.95"/>
	<path class="st5" d="M432.85,364.75C432.85,364.76,432.85,364.75,432.85,364.75c-0.36,0.95-0.98,1.65-1.67,2.39
		c-0.01,0.01-0.01,0.01-0.01,0.01c-1.05,1.15-2.45,2-4.09,2.39c-0.36,0.08-0.72,0.14-1.08,0.18c-3.94,0.38-7.65-2.21-8.58-6.17
		c-0.93-3.97,1.25-7.93,4.95-9.34c0.34-0.13,0.69-0.24,1.05-0.32c2.01-0.47,4.01-0.15,5.68,0.77l-0.01-0.03c0,0,5.48,2.85,7.55,5.8
		c1.96,2.8,3.29,8.17,1.14,10.74c0,0,0.21-5.44-2.33-7.02C434.65,363.64,433.65,363.82,432.85,364.75z"/>
	<path class="st5" d="M379.53,437.23C379.52,437.22,379.53,437.23,379.53,437.23c-0.63-0.8-0.9-1.69-1.18-2.67c0-0.01,0-0.01,0-0.01
		c-0.44-1.5-0.45-3.13,0.07-4.73c0.11-0.35,0.25-0.69,0.41-1.02c1.71-3.57,5.85-5.41,9.72-4.15s6.14,5.17,5.43,9.07
		c-0.06,0.35-0.15,0.71-0.27,1.06c-0.64,1.96-1.95,3.51-3.6,4.47l0.03,0.01c0,0-5.27,3.22-8.87,3.46c-3.41,0.23-8.7-1.41-9.78-4.58
		c0,0,4.55,3,7.22,1.64C379.54,439.34,379.9,438.39,379.53,437.23z"/>
	<path class="st5" d="M342.56,355.02C342.57,355.01,342.56,355.02,342.56,355.02c0.99-0.23,1.92-0.1,2.92,0.05c0.01,0,0.01,0,0.01,0
		c1.54,0.23,3.03,0.92,4.26,2.06c0.27,0.25,0.52,0.52,0.75,0.8c2.51,3.06,2.43,7.58-0.34,10.56c-2.78,2.98-7.28,3.38-10.51,1.1
		c-0.29-0.21-0.58-0.44-0.85-0.69c-1.51-1.41-2.36-3.25-2.53-5.15l-0.02,0.02c0,0-0.69-6.14,0.61-9.5c1.23-3.19,4.95-7.29,8.28-6.93
		c0,0-4.64,2.86-4.53,5.85C340.63,354.14,341.35,354.87,342.56,355.02z"/>
	<circle class="st8" cx="384.58" cy="385.74" r="63.14"/>
</g>
<g>
	<g>
		<path d="M-1917.98,326.54c1.93,0,1.93-3,0-3C-1919.91,323.54-1919.91,326.54-1917.98,326.54L-1917.98,326.54z"/>
	</g>
</g>
<g>
	<g>
		<path d="M-411.94,536.5h-0.13H-411.94c0.79,1.87,1.01,4.1,0.64,6.7c0.66,4.07-0.42,7.85-3.22,11.34c-0.59,0.14-1.23,0.14-1.93,0
			c-0.81-0.93-1.41-2.09-1.8-3.48l-0.52-0.9l-0.13-0.26l-0.26-0.39l-0.26-0.39c-0.95,1.59-1.51,3.48-1.68,5.67
			c-0.71,0.32-1.35,0.83-1.93,1.55c-0.14-0.75-0.52-1.44-1.16-2.06c0.04-0.61,0.17-1.34,0.39-2.19v-0.39
			c0.07-0.37,0.11-0.79,0.13-1.29l0.13-0.39v-0.9l0.13-0.9l0.13-0.39l0.13-0.77l0.13-0.9l0.13-0.9v-0.52
			c0.21-0.3,0.43-0.69,0.64-1.16c-0.02-0.92,0.06-1.74,0.26-2.45l0.26-0.64c0.35-0.47,0.87-0.95,1.55-1.42
			c0.98-0.33,1.97-0.16,2.96,0.52c0.14,0.86,0.01,1.76-0.39,2.71l1.16,3.22c0.14,0.26,0.26,0.6,0.39,1.03l0.26,0.39
			c0.06-0.57,0.24-1.26,0.52-2.06l0.26-1.03v-0.39l0.13-0.39l0.13-0.64l0.13-0.39l0.26-1.42c0.09-0.54,0.05-0.97-0.13-1.29
			l0.13-0.39l0.39-0.64c0.49-0.26,0.87-0.69,1.16-1.29l0.39-0.39c0.13,0.01,0.26-0.23,0.39-0.72L-411.94,536.5z"/>
		<path d="M-403.19,536.5c0.46,0.48,1.11,0.94,1.94,1.39l-0.28,1.11c2.81,5.92,2.35,11.75-1.39,17.49l-1.01-2.47
			c-0.37,0.17-0.3-1.22,0.18-4.19l-3.21,0.64l-1.24,4.35l-1.39,1.39c-0.69-0.18-1.34-0.64-1.94-1.39l0.28-3.89
			c0.42-1.15,0.92-2.3,1.5-3.47l-0.14-1.36l0.53-1.32l1.24-0.75l1.31-3.91l1.12-1.94L-403.19,536.5z M-403.73,546.45l-0.68-2.64
			l-1.17,2.79L-403.73,546.45z"/>
		<path d="M-394.93,536.49c2.4-0.04,4.79,0.8,7.18,2.54c1.41,3.66-0.55,6.74-5.88,9.24l0.66,0.59c0.44,0.84,1.09,1.59,1.96,2.23
			l0.78,0.6l0.26,0.15l0.27,0.14c0.56,0.68,1.3,1.23,2.21,1.64l0.27,0.15l0.26,0.3l0.78,0.29l0.78,0.6l0.26,0.15l0.26,0.15
			c0.27,0.4,0.67,0.75,1.18,1.04c0.2,0.36,0.5,0.71,0.91,1.04l0.39,0.29l0.26,0.15c0.02,0.1,0.11,0.2,0.27,0.3
			c0.02,0.1,0.11,0.2,0.26,0.3v1.04l-0.66,1.04l-1.7-0.3l-2.08-1.34l-0.4-0.14l-0.39-0.15l-0.26-0.3l-0.4-0.15l-1.04-0.74
			l-0.53-0.15l-0.52-0.3c-0.44-0.33-1.01-0.63-1.7-0.89l-0.53-0.45l-0.78-0.44l-0.64-0.3l-0.53-0.6l-0.52-0.29l-0.66-1.34
			c-0.42,0.71-0.72,1.65-0.91,2.83l-0.13,0.3c-0.19,0.24-0.37,0.54-0.53,0.89c-0.52,0.14-1.04,0.1-1.57-0.14
			c-0.02-0.1-0.11-0.2-0.26-0.3c0.02-0.87-0.02-1.96-0.13-3.28v-2.09l-0.13-0.44c-0.29-0.45-0.46-1.05-0.53-1.79
			c0.47-0.7,0.81-1.59,1.04-2.67C-399.01,540.11-397.97,536.98-394.93,536.49z M-394.42,540.28l-0.39,2.35v0.39
			C-392.1,541.82-391.97,540.91-394.42,540.28z"/>
		<path d="M-375.01,536.35l0.16,0.45c1.15-0.18,2,0.27,2.58,1.35c0.04,1.55-0.33,3.3-1.13,5.24l-0.32,1.5l-0.16,0.45
			c0.01,0.51-0.1,1.06-0.32,1.65l-0.16,0.75c-0.07,0.49-0.23,1.04-0.48,1.64v0.9c-0.09,0.89,0.01,1.89,0.32,3v0.45l-0.16,0.6
			c-0.92,1.16-2.02,1.94-3.3,2.34l-1.53-2.04c-3.52,1.62-5.82,0.57-6.92-3.15c-0.09-0.59-0.09-1.34,0-2.26l0.06-2.87
			c-0.49-1.59-0.14-4.28,1.05-8.08l1.3-1.5c0.51,0.15,0.99,0.45,1.45,0.9c0.06,0.82,0.33,1.67,0.81,2.55v0.45l-0.16,3v1.5
			c0.04,0.57-0.01,1.27-0.16,2.11v0.6v0.44l0.48,0.75c0.48,0.66,1.01,0.76,1.6,0.3c0.24-0.49,0.35-1.09,0.32-1.79
			c0.59-0.75,0.97-1.7,1.13-2.86c0.14-0.54,0.36-1.08,0.64-1.64l0.16-1.05l0.16-0.75l0.32-0.75l0.32-0.75l0.16-0.75l0.32-0.74
			l0.32-0.9L-375.01,536.35z"/>
		<path d="M-366.88,536.49c2.13-0.24,4.13,0.39,5.99,1.9c0.01,1.83-0.86,2.95-2.63,3.37c0.06,1.17-0.13,2.44-0.59,3.8v0.44
			c0.09,0.91-0.01,2.03-0.29,3.36l-0.14,0.88v1.02l-0.15,0.44l0.15,1.02v1.17c-1.02,2.66-2.19,3.1-3.51,1.32l-0.29,0.14
			c0.02-0.52-0.03-1.06-0.15-1.6c0.14-0.56,0.14-1.19,0-1.9c0.13-0.82,0.18-1.79,0.15-2.93v-4.38c-0.04-0.54,0.01-1.17,0.14-1.91
			c-1.73,0.16-2.85-0.57-3.36-2.19C-370.81,538.41-369.25,537.09-366.88,536.49z"/>
		<path d="M-352.05,536.5c3.87,1.31,5.94,4.22,6.23,8.72c-1.13,5.16-4.25,8.84-9.35,11.05c-0.53,0.06-1.1,0.01-1.71-0.15
			c-3.04-1.52-4.19-4.06-3.43-7.64l-0.62-1.87l1.08-2.8l0.16-0.46l0.46-1.25l0.16-0.47l1.56-2.02l0.31-0.31l0.82-2.05l0.59-0.21
			c0.44,0.57,1.26,0.49,2.48-0.23h0.47h0.46C-352.25,536.79-352.15,536.68-352.05,536.5z M-352.98,541.95
			c-0.25,0.57-0.67,1.14-1.25,1.72l-0.77,1.25l-0.47,0.62c-0.09,0.69-0.04,1.52,0.16,2.49c-0.21,1.29,0,2.58,0.62,3.89
			c2.03-1.49,3.48-3.62,4.36-6.38C-350.66,543.44-351.54,542.25-352.98,541.95z"/>
	</g>
	<g>
		<path class="st9" d="M-411.94,536.5h-0.13H-411.94c0.79,1.87,1.01,4.1,0.64,6.7c0.66,4.07-0.42,7.85-3.22,11.34
			c-0.59,0.14-1.23,0.14-1.93,0c-0.81-0.93-1.41-2.09-1.8-3.48l-0.52-0.9l-0.13-0.26l-0.26-0.39l-0.26-0.39
			c-0.95,1.59-1.51,3.48-1.68,5.67c-0.71,0.32-1.35,0.83-1.93,1.55c-0.14-0.75-0.52-1.44-1.16-2.06c0.04-0.61,0.17-1.34,0.39-2.19
			v-0.39c0.07-0.37,0.11-0.79,0.13-1.29l0.13-0.39v-0.9l0.13-0.9l0.13-0.39l0.13-0.77l0.13-0.9l0.13-0.9v-0.52
			c0.21-0.3,0.43-0.69,0.64-1.16c-0.02-0.92,0.06-1.74,0.26-2.45l0.26-0.64c0.35-0.47,0.87-0.95,1.55-1.42
			c0.98-0.33,1.97-0.16,2.96,0.52c0.14,0.86,0.01,1.76-0.39,2.71l1.16,3.22c0.14,0.26,0.26,0.6,0.39,1.03l0.26,0.39
			c0.06-0.57,0.24-1.26,0.52-2.06l0.26-1.03v-0.39l0.13-0.39l0.13-0.64l0.13-0.39l0.26-1.42c0.09-0.54,0.05-0.97-0.13-1.29
			l0.13-0.39l0.39-0.64c0.49-0.26,0.87-0.69,1.16-1.29l0.39-0.39c0.13,0.01,0.26-0.23,0.39-0.72L-411.94,536.5z"/>
		<path class="st9" d="M-403.19,536.5c0.46,0.48,1.11,0.94,1.94,1.39l-0.28,1.11c2.81,5.92,2.35,11.75-1.39,17.49l-1.01-2.47
			c-0.37,0.17-0.3-1.22,0.18-4.19l-3.21,0.64l-1.24,4.35l-1.39,1.39c-0.69-0.18-1.34-0.64-1.94-1.39l0.28-3.89
			c0.42-1.15,0.92-2.3,1.5-3.47l-0.14-1.36l0.53-1.32l1.24-0.75l1.31-3.91l1.12-1.94L-403.19,536.5z M-403.73,546.45l-0.68-2.64
			l-1.17,2.79L-403.73,546.45z"/>
		<path class="st9" d="M-394.93,536.49c2.4-0.04,4.79,0.8,7.18,2.54c1.41,3.66-0.55,6.74-5.88,9.24l0.66,0.59
			c0.44,0.84,1.09,1.59,1.96,2.23l0.78,0.6l0.26,0.15l0.27,0.14c0.56,0.68,1.3,1.23,2.21,1.64l0.27,0.15l0.26,0.3l0.78,0.29
			l0.78,0.6l0.26,0.15l0.26,0.15c0.27,0.4,0.67,0.75,1.18,1.04c0.2,0.36,0.5,0.71,0.91,1.04l0.39,0.29l0.26,0.15
			c0.02,0.1,0.11,0.2,0.27,0.3c0.02,0.1,0.11,0.2,0.26,0.3v1.04l-0.66,1.04l-1.7-0.3l-2.08-1.34l-0.4-0.14l-0.39-0.15l-0.26-0.3
			l-0.4-0.15l-1.04-0.74l-0.53-0.15l-0.52-0.3c-0.44-0.33-1.01-0.63-1.7-0.89l-0.53-0.45l-0.78-0.44l-0.64-0.3l-0.53-0.6l-0.52-0.29
			l-0.66-1.34c-0.42,0.71-0.72,1.65-0.91,2.83l-0.13,0.3c-0.19,0.24-0.37,0.54-0.53,0.89c-0.52,0.14-1.04,0.1-1.57-0.14
			c-0.02-0.1-0.11-0.2-0.26-0.3c0.02-0.87-0.02-1.96-0.13-3.28v-2.09l-0.13-0.44c-0.29-0.45-0.46-1.05-0.53-1.79
			c0.47-0.7,0.81-1.59,1.04-2.67C-399.01,540.11-397.97,536.98-394.93,536.49z M-394.42,540.28l-0.39,2.35v0.39
			C-392.1,541.82-391.97,540.91-394.42,540.28z"/>
		<path class="st9" d="M-375.01,536.35l0.16,0.45c1.15-0.18,2,0.27,2.58,1.35c0.04,1.55-0.33,3.3-1.13,5.24l-0.32,1.5l-0.16,0.45
			c0.01,0.51-0.1,1.06-0.32,1.65l-0.16,0.75c-0.07,0.49-0.23,1.04-0.48,1.64v0.9c-0.09,0.89,0.01,1.89,0.32,3v0.45l-0.16,0.6
			c-0.92,1.16-2.02,1.94-3.3,2.34l-1.53-2.04c-3.52,1.62-5.82,0.57-6.92-3.15c-0.09-0.59-0.09-1.34,0-2.26l0.06-2.87
			c-0.49-1.59-0.14-4.28,1.05-8.08l1.3-1.5c0.51,0.15,0.99,0.45,1.45,0.9c0.06,0.82,0.33,1.67,0.81,2.55v0.45l-0.16,3v1.5
			c0.04,0.57-0.01,1.27-0.16,2.11v0.6v0.44l0.48,0.75c0.48,0.66,1.01,0.76,1.6,0.3c0.24-0.49,0.35-1.09,0.32-1.79
			c0.59-0.75,0.97-1.7,1.13-2.86c0.14-0.54,0.36-1.08,0.64-1.64l0.16-1.05l0.16-0.75l0.32-0.75l0.32-0.75l0.16-0.75l0.32-0.74
			l0.32-0.9L-375.01,536.35z"/>
		<path class="st9" d="M-366.88,536.49c2.13-0.24,4.13,0.39,5.99,1.9c0.01,1.83-0.86,2.95-2.63,3.37c0.06,1.17-0.13,2.44-0.59,3.8
			v0.44c0.09,0.91-0.01,2.03-0.29,3.36l-0.14,0.88v1.02l-0.15,0.44l0.15,1.02v1.17c-1.02,2.66-2.19,3.1-3.51,1.32l-0.29,0.14
			c0.02-0.52-0.03-1.06-0.15-1.6c0.14-0.56,0.14-1.19,0-1.9c0.13-0.82,0.18-1.79,0.15-2.93v-4.38c-0.04-0.54,0.01-1.17,0.14-1.91
			c-1.73,0.16-2.85-0.57-3.36-2.19C-370.81,538.41-369.25,537.09-366.88,536.49z"/>
		<path class="st9" d="M-352.05,536.5c3.87,1.31,5.94,4.22,6.23,8.72c-1.13,5.16-4.25,8.84-9.35,11.05
			c-0.53,0.06-1.1,0.01-1.71-0.15c-3.04-1.52-4.19-4.06-3.43-7.64l-0.62-1.87l1.08-2.8l0.16-0.46l0.46-1.25l0.16-0.47l1.56-2.02
			l0.31-0.31l0.82-2.05l0.59-0.21c0.44,0.57,1.26,0.49,2.48-0.23h0.47h0.46C-352.25,536.79-352.15,536.68-352.05,536.5z
			 M-352.98,541.95c-0.25,0.57-0.67,1.14-1.25,1.72l-0.77,1.25l-0.47,0.62c-0.09,0.69-0.04,1.52,0.16,2.49
			c-0.21,1.29,0,2.58,0.62,3.89c2.03-1.49,3.48-3.62,4.36-6.38C-350.66,543.44-351.54,542.25-352.98,541.95z"/>
	</g>
	<g>
		<path class="st10" d="M-411.94,536.5h-0.13H-411.94c0.79,1.87,1.01,4.1,0.64,6.7c0.66,4.07-0.42,7.85-3.22,11.34
			c-0.59,0.14-1.23,0.14-1.93,0c-0.81-0.93-1.41-2.09-1.8-3.48l-0.52-0.9l-0.13-0.26l-0.26-0.39l-0.26-0.39
			c-0.95,1.59-1.51,3.48-1.68,5.67c-0.71,0.32-1.35,0.83-1.93,1.55c-0.14-0.75-0.52-1.44-1.16-2.06c0.04-0.61,0.17-1.34,0.39-2.19
			v-0.39c0.07-0.37,0.11-0.79,0.13-1.29l0.13-0.39v-0.9l0.13-0.9l0.13-0.39l0.13-0.77l0.13-0.9l0.13-0.9v-0.52
			c0.21-0.3,0.43-0.69,0.64-1.16c-0.02-0.92,0.06-1.74,0.26-2.45l0.26-0.64c0.35-0.47,0.87-0.95,1.55-1.42
			c0.98-0.33,1.97-0.16,2.96,0.52c0.14,0.86,0.01,1.76-0.39,2.71l1.16,3.22c0.14,0.26,0.26,0.6,0.39,1.03l0.26,0.39
			c0.06-0.57,0.24-1.26,0.52-2.06l0.26-1.03v-0.39l0.13-0.39l0.13-0.64l0.13-0.39l0.26-1.42c0.09-0.54,0.05-0.97-0.13-1.29
			l0.13-0.39l0.39-0.64c0.49-0.26,0.87-0.69,1.16-1.29l0.39-0.39c0.13,0.01,0.26-0.23,0.39-0.72L-411.94,536.5z"/>
		<path class="st10" d="M-403.19,536.5c0.46,0.48,1.11,0.94,1.94,1.39l-0.28,1.11c2.81,5.92,2.35,11.75-1.39,17.49l-1.01-2.47
			c-0.37,0.17-0.3-1.22,0.18-4.19l-3.21,0.64l-1.24,4.35l-1.39,1.39c-0.69-0.18-1.34-0.64-1.94-1.39l0.28-3.89
			c0.42-1.15,0.92-2.3,1.5-3.47l-0.14-1.36l0.53-1.32l1.24-0.75l1.31-3.91l1.12-1.94L-403.19,536.5z M-403.73,546.45l-0.68-2.64
			l-1.17,2.79L-403.73,546.45z"/>
		<path class="st10" d="M-394.93,536.49c2.4-0.04,4.79,0.8,7.18,2.54c1.41,3.66-0.55,6.74-5.88,9.24l0.66,0.59
			c0.44,0.84,1.09,1.59,1.96,2.23l0.78,0.6l0.26,0.15l0.27,0.14c0.56,0.68,1.3,1.23,2.21,1.64l0.27,0.15l0.26,0.3l0.78,0.29
			l0.78,0.6l0.26,0.15l0.26,0.15c0.27,0.4,0.67,0.75,1.18,1.04c0.2,0.36,0.5,0.71,0.91,1.04l0.39,0.29l0.26,0.15
			c0.02,0.1,0.11,0.2,0.27,0.3c0.02,0.1,0.11,0.2,0.26,0.3v1.04l-0.66,1.04l-1.7-0.3l-2.08-1.34l-0.4-0.14l-0.39-0.15l-0.26-0.3
			l-0.4-0.15l-1.04-0.74l-0.53-0.15l-0.52-0.3c-0.44-0.33-1.01-0.63-1.7-0.89l-0.53-0.45l-0.78-0.44l-0.64-0.3l-0.53-0.6l-0.52-0.29
			l-0.66-1.34c-0.42,0.71-0.72,1.65-0.91,2.83l-0.13,0.3c-0.19,0.24-0.37,0.54-0.53,0.89c-0.52,0.14-1.04,0.1-1.57-0.14
			c-0.02-0.1-0.11-0.2-0.26-0.3c0.02-0.87-0.02-1.96-0.13-3.28v-2.09l-0.13-0.44c-0.29-0.45-0.46-1.05-0.53-1.79
			c0.47-0.7,0.81-1.59,1.04-2.67C-399.01,540.11-397.97,536.98-394.93,536.49z M-394.42,540.28l-0.39,2.35v0.39
			C-392.1,541.82-391.97,540.91-394.42,540.28z"/>
		<path class="st10" d="M-375.01,536.35l0.16,0.45c1.15-0.18,2,0.27,2.58,1.35c0.04,1.55-0.33,3.3-1.13,5.24l-0.32,1.5l-0.16,0.45
			c0.01,0.51-0.1,1.06-0.32,1.65l-0.16,0.75c-0.07,0.49-0.23,1.04-0.48,1.64v0.9c-0.09,0.89,0.01,1.89,0.32,3v0.45l-0.16,0.6
			c-0.92,1.16-2.02,1.94-3.3,2.34l-1.53-2.04c-3.52,1.62-5.82,0.57-6.92-3.15c-0.09-0.59-0.09-1.34,0-2.26l0.06-2.87
			c-0.49-1.59-0.14-4.28,1.05-8.08l1.3-1.5c0.51,0.15,0.99,0.45,1.45,0.9c0.06,0.82,0.33,1.67,0.81,2.55v0.45l-0.16,3v1.5
			c0.04,0.57-0.01,1.27-0.16,2.11v0.6v0.44l0.48,0.75c0.48,0.66,1.01,0.76,1.6,0.3c0.24-0.49,0.35-1.09,0.32-1.79
			c0.59-0.75,0.97-1.7,1.13-2.86c0.14-0.54,0.36-1.08,0.64-1.64l0.16-1.05l0.16-0.75l0.32-0.75l0.32-0.75l0.16-0.75l0.32-0.74
			l0.32-0.9L-375.01,536.35z"/>
		<path class="st10" d="M-366.88,536.49c2.13-0.24,4.13,0.39,5.99,1.9c0.01,1.83-0.86,2.95-2.63,3.37c0.06,1.17-0.13,2.44-0.59,3.8
			v0.44c0.09,0.91-0.01,2.03-0.29,3.36l-0.14,0.88v1.02l-0.15,0.44l0.15,1.02v1.17c-1.02,2.66-2.19,3.1-3.51,1.32l-0.29,0.14
			c0.02-0.52-0.03-1.06-0.15-1.6c0.14-0.56,0.14-1.19,0-1.9c0.13-0.82,0.18-1.79,0.15-2.93v-4.38c-0.04-0.54,0.01-1.17,0.14-1.91
			c-1.73,0.16-2.85-0.57-3.36-2.19C-370.81,538.41-369.25,537.09-366.88,536.49z"/>
		<path class="st10" d="M-352.05,536.5c3.87,1.31,5.94,4.22,6.23,8.72c-1.13,5.16-4.25,8.84-9.35,11.05
			c-0.53,0.06-1.1,0.01-1.71-0.15c-3.04-1.52-4.19-4.06-3.43-7.64l-0.62-1.87l1.08-2.8l0.16-0.46l0.46-1.25l0.16-0.47l1.56-2.02
			l0.31-0.31l0.82-2.05l0.59-0.21c0.44,0.57,1.26,0.49,2.48-0.23h0.47h0.46C-352.25,536.79-352.15,536.68-352.05,536.5z
			 M-352.98,541.95c-0.25,0.57-0.67,1.14-1.25,1.72l-0.77,1.25l-0.47,0.62c-0.09,0.69-0.04,1.52,0.16,2.49
			c-0.21,1.29,0,2.58,0.62,3.89c2.03-1.49,3.48-3.62,4.36-6.38C-350.66,543.44-351.54,542.25-352.98,541.95z"/>
	</g>
	<g>
		
			<linearGradient id="SVGID_00000035490006592246816610000007574837905880315017_" gradientUnits="userSpaceOnUse" x1="-424.1824" y1="548.1978" x2="-345.8176" y2="548.1978">
			<stop  offset="0" style="stop-color:#FFE515"/>
			<stop  offset="0.4246" style="stop-color:#FF8815"/>
			<stop  offset="0.5729" style="stop-color:#FF5115"/>
		</linearGradient>
		<path style="fill:url(#SVGID_00000035490006592246816610000007574837905880315017_);" d="M-411.94,536.5h-0.13H-411.94
			c0.79,1.87,1.01,4.1,0.64,6.7c0.66,4.07-0.42,7.85-3.22,11.34c-0.59,0.14-1.23,0.14-1.93,0c-0.81-0.93-1.41-2.09-1.8-3.48
			l-0.52-0.9l-0.13-0.26l-0.26-0.39l-0.26-0.39c-0.95,1.59-1.51,3.48-1.68,5.67c-0.71,0.32-1.35,0.83-1.93,1.55
			c-0.14-0.75-0.52-1.44-1.16-2.06c0.04-0.61,0.17-1.34,0.39-2.19v-0.39c0.07-0.37,0.11-0.79,0.13-1.29l0.13-0.39v-0.9l0.13-0.9
			l0.13-0.39l0.13-0.77l0.13-0.9l0.13-0.9v-0.52c0.21-0.3,0.43-0.69,0.64-1.16c-0.02-0.92,0.06-1.74,0.26-2.45l0.26-0.64
			c0.35-0.47,0.87-0.95,1.55-1.42c0.98-0.33,1.97-0.16,2.96,0.52c0.14,0.86,0.01,1.76-0.39,2.71l1.16,3.22
			c0.14,0.26,0.26,0.6,0.39,1.03l0.26,0.39c0.06-0.57,0.24-1.26,0.52-2.06l0.26-1.03v-0.39l0.13-0.39l0.13-0.64l0.13-0.39l0.26-1.42
			c0.09-0.54,0.05-0.97-0.13-1.29l0.13-0.39l0.39-0.64c0.49-0.26,0.87-0.69,1.16-1.29l0.39-0.39c0.13,0.01,0.26-0.23,0.39-0.72
			L-411.94,536.5z"/>
		
			<linearGradient id="SVGID_00000148659651645739795490000016243306260790579387_" gradientUnits="userSpaceOnUse" x1="-424.1824" y1="548.1978" x2="-345.8176" y2="548.1978">
			<stop  offset="0" style="stop-color:#FFE515"/>
			<stop  offset="0.4246" style="stop-color:#FF8815"/>
			<stop  offset="0.5729" style="stop-color:#FF5115"/>
		</linearGradient>
		<path style="fill:url(#SVGID_00000148659651645739795490000016243306260790579387_);" d="M-403.19,536.5
			c0.46,0.48,1.11,0.94,1.94,1.39l-0.28,1.11c2.81,5.92,2.35,11.75-1.39,17.49l-1.01-2.47c-0.37,0.17-0.3-1.22,0.18-4.19l-3.21,0.64
			l-1.24,4.35l-1.39,1.39c-0.69-0.18-1.34-0.64-1.94-1.39l0.28-3.89c0.42-1.15,0.92-2.3,1.5-3.47l-0.14-1.36l0.53-1.32l1.24-0.75
			l1.31-3.91l1.12-1.94L-403.19,536.5z M-403.73,546.45l-0.68-2.64l-1.17,2.79L-403.73,546.45z"/>
		
			<linearGradient id="SVGID_00000025417567915898275780000017446815407359353505_" gradientUnits="userSpaceOnUse" x1="-424.1824" y1="548.1978" x2="-345.8176" y2="548.1978">
			<stop  offset="0" style="stop-color:#FFE515"/>
			<stop  offset="0.4246" style="stop-color:#FF8815"/>
			<stop  offset="0.5729" style="stop-color:#FF5115"/>
		</linearGradient>
		<path style="fill:url(#SVGID_00000025417567915898275780000017446815407359353505_);" d="M-394.93,536.49
			c2.4-0.04,4.79,0.8,7.18,2.54c1.41,3.66-0.55,6.74-5.88,9.24l0.66,0.59c0.44,0.84,1.09,1.59,1.96,2.23l0.78,0.6l0.26,0.15
			l0.27,0.14c0.56,0.68,1.3,1.23,2.21,1.64l0.27,0.15l0.26,0.3l0.78,0.29l0.78,0.6l0.26,0.15l0.26,0.15
			c0.27,0.4,0.67,0.75,1.18,1.04c0.2,0.36,0.5,0.71,0.91,1.04l0.39,0.29l0.26,0.15c0.02,0.1,0.11,0.2,0.27,0.3
			c0.02,0.1,0.11,0.2,0.26,0.3v1.04l-0.66,1.04l-1.7-0.3l-2.08-1.34l-0.4-0.14l-0.39-0.15l-0.26-0.3l-0.4-0.15l-1.04-0.74
			l-0.53-0.15l-0.52-0.3c-0.44-0.33-1.01-0.63-1.7-0.89l-0.53-0.45l-0.78-0.44l-0.64-0.3l-0.53-0.6l-0.52-0.29l-0.66-1.34
			c-0.42,0.71-0.72,1.65-0.91,2.83l-0.13,0.3c-0.19,0.24-0.37,0.54-0.53,0.89c-0.52,0.14-1.04,0.1-1.57-0.14
			c-0.02-0.1-0.11-0.2-0.26-0.3c0.02-0.87-0.02-1.96-0.13-3.28v-2.09l-0.13-0.44c-0.29-0.45-0.46-1.05-0.53-1.79
			c0.47-0.7,0.81-1.59,1.04-2.67C-399.01,540.11-397.97,536.98-394.93,536.49z M-394.42,540.28l-0.39,2.35v0.39
			C-392.1,541.82-391.97,540.91-394.42,540.28z"/>
		
			<linearGradient id="SVGID_00000037683992058183554040000003056586432736600983_" gradientUnits="userSpaceOnUse" x1="-424.1824" y1="548.1978" x2="-345.8176" y2="548.1978">
			<stop  offset="0" style="stop-color:#FFE515"/>
			<stop  offset="0.4246" style="stop-color:#FF8815"/>
			<stop  offset="0.5729" style="stop-color:#FF5115"/>
		</linearGradient>
		<path style="fill:url(#SVGID_00000037683992058183554040000003056586432736600983_);" d="M-375.01,536.35l0.16,0.45
			c1.15-0.18,2,0.27,2.58,1.35c0.04,1.55-0.33,3.3-1.13,5.24l-0.32,1.5l-0.16,0.45c0.01,0.51-0.1,1.06-0.32,1.65l-0.16,0.75
			c-0.07,0.49-0.23,1.04-0.48,1.64v0.9c-0.09,0.89,0.01,1.89,0.32,3v0.45l-0.16,0.6c-0.92,1.16-2.02,1.94-3.3,2.34l-1.53-2.04
			c-3.52,1.62-5.82,0.57-6.92-3.15c-0.09-0.59-0.09-1.34,0-2.26l0.06-2.87c-0.49-1.59-0.14-4.28,1.05-8.08l1.3-1.5
			c0.51,0.15,0.99,0.45,1.45,0.9c0.06,0.82,0.33,1.67,0.81,2.55v0.45l-0.16,3v1.5c0.04,0.57-0.01,1.27-0.16,2.11v0.6v0.44l0.48,0.75
			c0.48,0.66,1.01,0.76,1.6,0.3c0.24-0.49,0.35-1.09,0.32-1.79c0.59-0.75,0.97-1.7,1.13-2.86c0.14-0.54,0.36-1.08,0.64-1.64
			l0.16-1.05l0.16-0.75l0.32-0.75l0.32-0.75l0.16-0.75l0.32-0.74l0.32-0.9L-375.01,536.35z"/>
		
			<linearGradient id="SVGID_00000088120808838097091910000001805134587161991073_" gradientUnits="userSpaceOnUse" x1="-424.1824" y1="548.1978" x2="-345.8176" y2="548.1978">
			<stop  offset="0" style="stop-color:#FFE515"/>
			<stop  offset="0.4246" style="stop-color:#FF8815"/>
			<stop  offset="0.5729" style="stop-color:#FF5115"/>
		</linearGradient>
		<path style="fill:url(#SVGID_00000088120808838097091910000001805134587161991073_);" d="M-366.88,536.49
			c2.13-0.24,4.13,0.39,5.99,1.9c0.01,1.83-0.86,2.95-2.63,3.37c0.06,1.17-0.13,2.44-0.59,3.8v0.44c0.09,0.91-0.01,2.03-0.29,3.36
			l-0.14,0.88v1.02l-0.15,0.44l0.15,1.02v1.17c-1.02,2.66-2.19,3.1-3.51,1.32l-0.29,0.14c0.02-0.52-0.03-1.06-0.15-1.6
			c0.14-0.56,0.14-1.19,0-1.9c0.13-0.82,0.18-1.79,0.15-2.93v-4.38c-0.04-0.54,0.01-1.17,0.14-1.91c-1.73,0.16-2.85-0.57-3.36-2.19
			C-370.81,538.41-369.25,537.09-366.88,536.49z"/>
		
			<linearGradient id="SVGID_00000081619971310193658840000015326312819593362826_" gradientUnits="userSpaceOnUse" x1="-424.1824" y1="548.1978" x2="-345.8176" y2="548.1978">
			<stop  offset="0" style="stop-color:#FFE515"/>
			<stop  offset="0.4246" style="stop-color:#FF8815"/>
			<stop  offset="0.5729" style="stop-color:#FF5115"/>
		</linearGradient>
		<path style="fill:url(#SVGID_00000081619971310193658840000015326312819593362826_);" d="M-352.05,536.5
			c3.87,1.31,5.94,4.22,6.23,8.72c-1.13,5.16-4.25,8.84-9.35,11.05c-0.53,0.06-1.1,0.01-1.71-0.15c-3.04-1.52-4.19-4.06-3.43-7.64
			l-0.62-1.87l1.08-2.8l0.16-0.46l0.46-1.25l0.16-0.47l1.56-2.02l0.31-0.31l0.82-2.05l0.59-0.21c0.44,0.57,1.26,0.49,2.48-0.23h0.47
			h0.46C-352.25,536.79-352.15,536.68-352.05,536.5z M-352.98,541.95c-0.25,0.57-0.67,1.14-1.25,1.72l-0.77,1.25l-0.47,0.62
			c-0.09,0.69-0.04,1.52,0.16,2.49c-0.21,1.29,0,2.58,0.62,3.89c2.03-1.49,3.48-3.62,4.36-6.38
			C-350.66,543.44-351.54,542.25-352.98,541.95z"/>
	</g>
</g>
<g>
	
		<radialGradient id="SVGID_00000146483836750854171880000013580741657388127413_" cx="-385" cy="384" r="83" gradientUnits="userSpaceOnUse">
		<stop  offset="0" style="stop-color:#FFE515"/>
		<stop  offset="0.3492" style="stop-color:#FF8815"/>
		<stop  offset="0.5553" style="stop-color:#FF7315"/>
		<stop  offset="0.6759" style="stop-color:#FF6B15"/>
		<stop  offset="0.9849" style="stop-color:#FF5115"/>
	</radialGradient>
	
		<circle style="fill:url(#SVGID_00000146483836750854171880000013580741657388127413_);stroke:#020101;stroke-width:5;stroke-miterlimit:10;" cx="-385" cy="384" r="83"/>
	<path d="M-345,399.5h-79c-8.56,0-15.5-6.94-15.5-15.5s6.94-15.5,15.5-15.5h79c8.56,0,15.5,6.94,15.5,15.5S-336.44,399.5-345,399.5z
		"/>
	<path d="M-384.5,324.52c0,0-20,54.97,0,119.47C-384.5,443.99-366.5,381.54-384.5,324.52z"/>
</g>
<g>
	<g>
		<path d="M-1180.94,536.88h-0.13H-1180.94c0.79,1.87,1.01,4.1,0.64,6.7c0.66,4.07-0.42,7.85-3.22,11.34
			c-0.59,0.14-1.23,0.14-1.93,0c-0.81-0.93-1.41-2.09-1.8-3.48l-0.52-0.9l-0.13-0.26l-0.26-0.39l-0.26-0.39
			c-0.95,1.59-1.51,3.48-1.68,5.67c-0.71,0.32-1.35,0.83-1.93,1.55c-0.14-0.75-0.52-1.44-1.16-2.06c0.04-0.61,0.17-1.34,0.39-2.19
			v-0.39c0.07-0.37,0.11-0.79,0.13-1.29l0.13-0.39v-0.9l0.13-0.9l0.13-0.39l0.13-0.77l0.13-0.9l0.13-0.9v-0.52
			c0.21-0.3,0.43-0.69,0.64-1.16c-0.02-0.92,0.06-1.74,0.26-2.45l0.26-0.64c0.35-0.47,0.87-0.95,1.55-1.42
			c0.98-0.33,1.97-0.16,2.96,0.52c0.14,0.86,0.01,1.76-0.39,2.71l1.16,3.22c0.14,0.26,0.26,0.6,0.39,1.03l0.26,0.39
			c0.06-0.57,0.24-1.26,0.52-2.06l0.26-1.03v-0.39l0.13-0.39l0.13-0.64l0.13-0.39l0.26-1.42c0.09-0.54,0.05-0.97-0.13-1.29
			l0.13-0.39l0.39-0.64c0.49-0.26,0.87-0.69,1.16-1.29l0.39-0.39c0.13,0.01,0.26-0.23,0.39-0.72L-1180.94,536.88z"/>
		<path d="M-1172.19,536.88c0.46,0.48,1.11,0.94,1.94,1.39l-0.28,1.11c2.81,5.92,2.35,11.75-1.39,17.49l-1.01-2.47
			c-0.37,0.17-0.3-1.22,0.18-4.19l-3.21,0.64l-1.24,4.35l-1.39,1.39c-0.69-0.18-1.34-0.64-1.94-1.39l0.28-3.89
			c0.42-1.15,0.92-2.3,1.5-3.47l-0.14-1.36l0.53-1.32l1.24-0.75l1.31-3.91l1.12-1.94L-1172.19,536.88z M-1172.73,546.83l-0.68-2.64
			l-1.17,2.79L-1172.73,546.83z"/>
		<path d="M-1163.93,536.87c2.4-0.04,4.79,0.8,7.18,2.54c1.41,3.66-0.55,6.74-5.88,9.24l0.66,0.59c0.44,0.84,1.09,1.59,1.96,2.23
			l0.78,0.6l0.26,0.15l0.27,0.14c0.56,0.68,1.3,1.23,2.21,1.64l0.27,0.15l0.26,0.3l0.78,0.29l0.78,0.6l0.26,0.15l0.26,0.15
			c0.27,0.4,0.67,0.75,1.18,1.04c0.2,0.36,0.5,0.71,0.91,1.04l0.39,0.29l0.26,0.15c0.02,0.1,0.11,0.2,0.27,0.3
			c0.02,0.1,0.11,0.2,0.26,0.3v1.04l-0.66,1.04l-1.7-0.3l-2.08-1.34l-0.4-0.14l-0.39-0.15l-0.26-0.3l-0.4-0.15l-1.04-0.74
			l-0.53-0.15l-0.52-0.3c-0.44-0.33-1.01-0.63-1.7-0.89l-0.53-0.45l-0.78-0.44l-0.64-0.3l-0.53-0.6l-0.52-0.29l-0.66-1.34
			c-0.42,0.71-0.72,1.65-0.91,2.83l-0.13,0.3c-0.19,0.24-0.37,0.54-0.53,0.89c-0.52,0.14-1.04,0.1-1.57-0.14
			c-0.02-0.1-0.11-0.2-0.26-0.3c0.02-0.87-0.02-1.96-0.13-3.28v-2.09l-0.13-0.44c-0.29-0.45-0.46-1.05-0.53-1.79
			c0.47-0.7,0.81-1.59,1.04-2.67C-1168.01,540.49-1166.97,537.36-1163.93,536.87z M-1163.42,540.65l-0.39,2.35v0.39
			C-1161.1,542.19-1160.97,541.28-1163.42,540.65z"/>
		<path d="M-1144.01,536.73l0.16,0.45c1.15-0.18,2,0.27,2.58,1.35c0.04,1.55-0.33,3.3-1.13,5.24l-0.32,1.5l-0.16,0.45
			c0.01,0.51-0.1,1.06-0.32,1.65l-0.16,0.75c-0.07,0.49-0.23,1.04-0.48,1.64v0.9c-0.09,0.89,0.01,1.89,0.32,3v0.45l-0.16,0.6
			c-0.92,1.16-2.02,1.94-3.3,2.34l-1.53-2.04c-3.52,1.62-5.82,0.57-6.92-3.15c-0.09-0.59-0.09-1.34,0-2.26l0.06-2.87
			c-0.49-1.59-0.14-4.28,1.05-8.08l1.3-1.5c0.51,0.15,0.99,0.45,1.45,0.9c0.06,0.82,0.33,1.67,0.81,2.55v0.45l-0.16,3v1.5
			c0.04,0.57-0.01,1.27-0.16,2.11v0.6v0.44l0.48,0.75c0.48,0.66,1.01,0.76,1.6,0.3c0.24-0.49,0.35-1.09,0.32-1.79
			c0.59-0.75,0.97-1.7,1.13-2.86c0.14-0.54,0.36-1.08,0.64-1.64l0.16-1.05l0.16-0.75l0.32-0.75l0.32-0.75l0.16-0.75l0.32-0.74
			l0.32-0.9L-1144.01,536.73z"/>
		<path d="M-1135.88,536.87c2.13-0.24,4.13,0.39,5.99,1.9c0.01,1.83-0.86,2.95-2.63,3.37c0.06,1.17-0.13,2.44-0.59,3.8v0.44
			c0.09,0.91-0.01,2.03-0.29,3.36l-0.14,0.88v1.02l-0.15,0.44l0.15,1.02v1.17c-1.02,2.66-2.19,3.1-3.51,1.32l-0.29,0.14
			c0.02-0.52-0.03-1.06-0.15-1.6c0.14-0.56,0.14-1.19,0-1.9c0.13-0.82,0.18-1.79,0.15-2.93v-4.38c-0.04-0.54,0.01-1.17,0.14-1.91
			c-1.73,0.16-2.85-0.57-3.36-2.19C-1139.81,538.78-1138.25,537.47-1135.88,536.87z"/>
		<path d="M-1121.05,536.88c3.87,1.31,5.94,4.22,6.23,8.72c-1.13,5.16-4.25,8.84-9.35,11.05c-0.53,0.06-1.1,0.01-1.71-0.15
			c-3.04-1.52-4.19-4.06-3.43-7.64l-0.62-1.87l1.08-2.8l0.16-0.46l0.46-1.25l0.16-0.47l1.56-2.02l0.31-0.31l0.82-2.05l0.59-0.21
			c0.44,0.57,1.26,0.49,2.48-0.23h0.47h0.46C-1121.25,537.16-1121.15,537.06-1121.05,536.88z M-1121.98,542.33
			c-0.25,0.57-0.67,1.14-1.25,1.72l-0.77,1.25l-0.47,0.62c-0.09,0.69-0.04,1.52,0.16,2.49c-0.21,1.29,0,2.58,0.62,3.89
			c2.03-1.49,3.48-3.62,4.36-6.38C-1119.66,543.82-1120.54,542.62-1121.98,542.33z"/>
	</g>
	<g>
		<path class="st9" d="M-1180.94,536.88h-0.13H-1180.94c0.79,1.87,1.01,4.1,0.64,6.7c0.66,4.07-0.42,7.85-3.22,11.34
			c-0.59,0.14-1.23,0.14-1.93,0c-0.81-0.93-1.41-2.09-1.8-3.48l-0.52-0.9l-0.13-0.26l-0.26-0.39l-0.26-0.39
			c-0.95,1.59-1.51,3.48-1.68,5.67c-0.71,0.32-1.35,0.83-1.93,1.55c-0.14-0.75-0.52-1.44-1.16-2.06c0.04-0.61,0.17-1.34,0.39-2.19
			v-0.39c0.07-0.37,0.11-0.79,0.13-1.29l0.13-0.39v-0.9l0.13-0.9l0.13-0.39l0.13-0.77l0.13-0.9l0.13-0.9v-0.52
			c0.21-0.3,0.43-0.69,0.64-1.16c-0.02-0.92,0.06-1.74,0.26-2.45l0.26-0.64c0.35-0.47,0.87-0.95,1.55-1.42
			c0.98-0.33,1.97-0.16,2.96,0.52c0.14,0.86,0.01,1.76-0.39,2.71l1.16,3.22c0.14,0.26,0.26,0.6,0.39,1.03l0.26,0.39
			c0.06-0.57,0.24-1.26,0.52-2.06l0.26-1.03v-0.39l0.13-0.39l0.13-0.64l0.13-0.39l0.26-1.42c0.09-0.54,0.05-0.97-0.13-1.29
			l0.13-0.39l0.39-0.64c0.49-0.26,0.87-0.69,1.16-1.29l0.39-0.39c0.13,0.01,0.26-0.23,0.39-0.72L-1180.94,536.88z"/>
		<path class="st9" d="M-1172.19,536.88c0.46,0.48,1.11,0.94,1.94,1.39l-0.28,1.11c2.81,5.92,2.35,11.75-1.39,17.49l-1.01-2.47
			c-0.37,0.17-0.3-1.22,0.18-4.19l-3.21,0.64l-1.24,4.35l-1.39,1.39c-0.69-0.18-1.34-0.64-1.94-1.39l0.28-3.89
			c0.42-1.15,0.92-2.3,1.5-3.47l-0.14-1.36l0.53-1.32l1.24-0.75l1.31-3.91l1.12-1.94L-1172.19,536.88z M-1172.73,546.83l-0.68-2.64
			l-1.17,2.79L-1172.73,546.83z"/>
		<path class="st9" d="M-1163.93,536.87c2.4-0.04,4.79,0.8,7.18,2.54c1.41,3.66-0.55,6.74-5.88,9.24l0.66,0.59
			c0.44,0.84,1.09,1.59,1.96,2.23l0.78,0.6l0.26,0.15l0.27,0.14c0.56,0.68,1.3,1.23,2.21,1.64l0.27,0.15l0.26,0.3l0.78,0.29
			l0.78,0.6l0.26,0.15l0.26,0.15c0.27,0.4,0.67,0.75,1.18,1.04c0.2,0.36,0.5,0.71,0.91,1.04l0.39,0.29l0.26,0.15
			c0.02,0.1,0.11,0.2,0.27,0.3c0.02,0.1,0.11,0.2,0.26,0.3v1.04l-0.66,1.04l-1.7-0.3l-2.08-1.34l-0.4-0.14l-0.39-0.15l-0.26-0.3
			l-0.4-0.15l-1.04-0.74l-0.53-0.15l-0.52-0.3c-0.44-0.33-1.01-0.63-1.7-0.89l-0.53-0.45l-0.78-0.44l-0.64-0.3l-0.53-0.6l-0.52-0.29
			l-0.66-1.34c-0.42,0.71-0.72,1.65-0.91,2.83l-0.13,0.3c-0.19,0.24-0.37,0.54-0.53,0.89c-0.52,0.14-1.04,0.1-1.57-0.14
			c-0.02-0.1-0.11-0.2-0.26-0.3c0.02-0.87-0.02-1.96-0.13-3.28v-2.09l-0.13-0.44c-0.29-0.45-0.46-1.05-0.53-1.79
			c0.47-0.7,0.81-1.59,1.04-2.67C-1168.01,540.49-1166.97,537.36-1163.93,536.87z M-1163.42,540.65l-0.39,2.35v0.39
			C-1161.1,542.19-1160.97,541.28-1163.42,540.65z"/>
		<path class="st9" d="M-1144.01,536.73l0.16,0.45c1.15-0.18,2,0.27,2.58,1.35c0.04,1.55-0.33,3.3-1.13,5.24l-0.32,1.5l-0.16,0.45
			c0.01,0.51-0.1,1.06-0.32,1.65l-0.16,0.75c-0.07,0.49-0.23,1.04-0.48,1.64v0.9c-0.09,0.89,0.01,1.89,0.32,3v0.45l-0.16,0.6
			c-0.92,1.16-2.02,1.94-3.3,2.34l-1.53-2.04c-3.52,1.62-5.82,0.57-6.92-3.15c-0.09-0.59-0.09-1.34,0-2.26l0.06-2.87
			c-0.49-1.59-0.14-4.28,1.05-8.08l1.3-1.5c0.51,0.15,0.99,0.45,1.45,0.9c0.06,0.82,0.33,1.67,0.81,2.55v0.45l-0.16,3v1.5
			c0.04,0.57-0.01,1.27-0.16,2.11v0.6v0.44l0.48,0.75c0.48,0.66,1.01,0.76,1.6,0.3c0.24-0.49,0.35-1.09,0.32-1.79
			c0.59-0.75,0.97-1.7,1.13-2.86c0.14-0.54,0.36-1.08,0.64-1.64l0.16-1.05l0.16-0.75l0.32-0.75l0.32-0.75l0.16-0.75l0.32-0.74
			l0.32-0.9L-1144.01,536.73z"/>
		<path class="st9" d="M-1135.88,536.87c2.13-0.24,4.13,0.39,5.99,1.9c0.01,1.83-0.86,2.95-2.63,3.37c0.06,1.17-0.13,2.44-0.59,3.8
			v0.44c0.09,0.91-0.01,2.03-0.29,3.36l-0.14,0.88v1.02l-0.15,0.44l0.15,1.02v1.17c-1.02,2.66-2.19,3.1-3.51,1.32l-0.29,0.14
			c0.02-0.52-0.03-1.06-0.15-1.6c0.14-0.56,0.14-1.19,0-1.9c0.13-0.82,0.18-1.79,0.15-2.93v-4.38c-0.04-0.54,0.01-1.17,0.14-1.91
			c-1.73,0.16-2.85-0.57-3.36-2.19C-1139.81,538.78-1138.25,537.47-1135.88,536.87z"/>
		<path class="st9" d="M-1121.05,536.88c3.87,1.31,5.94,4.22,6.23,8.72c-1.13,5.16-4.25,8.84-9.35,11.05
			c-0.53,0.06-1.1,0.01-1.71-0.15c-3.04-1.52-4.19-4.06-3.43-7.64l-0.62-1.87l1.08-2.8l0.16-0.46l0.46-1.25l0.16-0.47l1.56-2.02
			l0.31-0.31l0.82-2.05l0.59-0.21c0.44,0.57,1.26,0.49,2.48-0.23h0.47h0.46C-1121.25,537.16-1121.15,537.06-1121.05,536.88z
			 M-1121.98,542.33c-0.25,0.57-0.67,1.14-1.25,1.72l-0.77,1.25l-0.47,0.62c-0.09,0.69-0.04,1.52,0.16,2.49
			c-0.21,1.29,0,2.58,0.62,3.89c2.03-1.49,3.48-3.62,4.36-6.38C-1119.66,543.82-1120.54,542.62-1121.98,542.33z"/>
	</g>
	<g>
		<path class="st10" d="M-1180.94,536.88h-0.13H-1180.94c0.79,1.87,1.01,4.1,0.64,6.7c0.66,4.07-0.42,7.85-3.22,11.34
			c-0.59,0.14-1.23,0.14-1.93,0c-0.81-0.93-1.41-2.09-1.8-3.48l-0.52-0.9l-0.13-0.26l-0.26-0.39l-0.26-0.39
			c-0.95,1.59-1.51,3.48-1.68,5.67c-0.71,0.32-1.35,0.83-1.93,1.55c-0.14-0.75-0.52-1.44-1.16-2.06c0.04-0.61,0.17-1.34,0.39-2.19
			v-0.39c0.07-0.37,0.11-0.79,0.13-1.29l0.13-0.39v-0.9l0.13-0.9l0.13-0.39l0.13-0.77l0.13-0.9l0.13-0.9v-0.52
			c0.21-0.3,0.43-0.69,0.64-1.16c-0.02-0.92,0.06-1.74,0.26-2.45l0.26-0.64c0.35-0.47,0.87-0.95,1.55-1.42
			c0.98-0.33,1.97-0.16,2.96,0.52c0.14,0.86,0.01,1.76-0.39,2.71l1.16,3.22c0.14,0.26,0.26,0.6,0.39,1.03l0.26,0.39
			c0.06-0.57,0.24-1.26,0.52-2.06l0.26-1.03v-0.39l0.13-0.39l0.13-0.64l0.13-0.39l0.26-1.42c0.09-0.54,0.05-0.97-0.13-1.29
			l0.13-0.39l0.39-0.64c0.49-0.26,0.87-0.69,1.16-1.29l0.39-0.39c0.13,0.01,0.26-0.23,0.39-0.72L-1180.94,536.88z"/>
		<path class="st10" d="M-1172.19,536.88c0.46,0.48,1.11,0.94,1.94,1.39l-0.28,1.11c2.81,5.92,2.35,11.75-1.39,17.49l-1.01-2.47
			c-0.37,0.17-0.3-1.22,0.18-4.19l-3.21,0.64l-1.24,4.35l-1.39,1.39c-0.69-0.18-1.34-0.64-1.94-1.39l0.28-3.89
			c0.42-1.15,0.92-2.3,1.5-3.47l-0.14-1.36l0.53-1.32l1.24-0.75l1.31-3.91l1.12-1.94L-1172.19,536.88z M-1172.73,546.83l-0.68-2.64
			l-1.17,2.79L-1172.73,546.83z"/>
		<path class="st10" d="M-1163.93,536.87c2.4-0.04,4.79,0.8,7.18,2.54c1.41,3.66-0.55,6.74-5.88,9.24l0.66,0.59
			c0.44,0.84,1.09,1.59,1.96,2.23l0.78,0.6l0.26,0.15l0.27,0.14c0.56,0.68,1.3,1.23,2.21,1.64l0.27,0.15l0.26,0.3l0.78,0.29
			l0.78,0.6l0.26,0.15l0.26,0.15c0.27,0.4,0.67,0.75,1.18,1.04c0.2,0.36,0.5,0.71,0.91,1.04l0.39,0.29l0.26,0.15
			c0.02,0.1,0.11,0.2,0.27,0.3c0.02,0.1,0.11,0.2,0.26,0.3v1.04l-0.66,1.04l-1.7-0.3l-2.08-1.34l-0.4-0.14l-0.39-0.15l-0.26-0.3
			l-0.4-0.15l-1.04-0.74l-0.53-0.15l-0.52-0.3c-0.44-0.33-1.01-0.63-1.7-0.89l-0.53-0.45l-0.78-0.44l-0.64-0.3l-0.53-0.6l-0.52-0.29
			l-0.66-1.34c-0.42,0.71-0.72,1.65-0.91,2.83l-0.13,0.3c-0.19,0.24-0.37,0.54-0.53,0.89c-0.52,0.14-1.04,0.1-1.57-0.14
			c-0.02-0.1-0.11-0.2-0.26-0.3c0.02-0.87-0.02-1.96-0.13-3.28v-2.09l-0.13-0.44c-0.29-0.45-0.46-1.05-0.53-1.79
			c0.47-0.7,0.81-1.59,1.04-2.67C-1168.01,540.49-1166.97,537.36-1163.93,536.87z M-1163.42,540.65l-0.39,2.35v0.39
			C-1161.1,542.19-1160.97,541.28-1163.42,540.65z"/>
		<path class="st10" d="M-1144.01,536.73l0.16,0.45c1.15-0.18,2,0.27,2.58,1.35c0.04,1.55-0.33,3.3-1.13,5.24l-0.32,1.5l-0.16,0.45
			c0.01,0.51-0.1,1.06-0.32,1.65l-0.16,0.75c-0.07,0.49-0.23,1.04-0.48,1.64v0.9c-0.09,0.89,0.01,1.89,0.32,3v0.45l-0.16,0.6
			c-0.92,1.16-2.02,1.94-3.3,2.34l-1.53-2.04c-3.52,1.62-5.82,0.57-6.92-3.15c-0.09-0.59-0.09-1.34,0-2.26l0.06-2.87
			c-0.49-1.59-0.14-4.28,1.05-8.08l1.3-1.5c0.51,0.15,0.99,0.45,1.45,0.9c0.06,0.82,0.33,1.67,0.81,2.55v0.45l-0.16,3v1.5
			c0.04,0.57-0.01,1.27-0.16,2.11v0.6v0.44l0.48,0.75c0.48,0.66,1.01,0.76,1.6,0.3c0.24-0.49,0.35-1.09,0.32-1.79
			c0.59-0.75,0.97-1.7,1.13-2.86c0.14-0.54,0.36-1.08,0.64-1.64l0.16-1.05l0.16-0.75l0.32-0.75l0.32-0.75l0.16-0.75l0.32-0.74
			l0.32-0.9L-1144.01,536.73z"/>
		<path class="st10" d="M-1135.88,536.87c2.13-0.24,4.13,0.39,5.99,1.9c0.01,1.83-0.86,2.95-2.63,3.37c0.06,1.17-0.13,2.44-0.59,3.8
			v0.44c0.09,0.91-0.01,2.03-0.29,3.36l-0.14,0.88v1.02l-0.15,0.44l0.15,1.02v1.17c-1.02,2.66-2.19,3.1-3.51,1.32l-0.29,0.14
			c0.02-0.52-0.03-1.06-0.15-1.6c0.14-0.56,0.14-1.19,0-1.9c0.13-0.82,0.18-1.79,0.15-2.93v-4.38c-0.04-0.54,0.01-1.17,0.14-1.91
			c-1.73,0.16-2.85-0.57-3.36-2.19C-1139.81,538.78-1138.25,537.47-1135.88,536.87z"/>
		<path class="st10" d="M-1121.05,536.88c3.87,1.31,5.94,4.22,6.23,8.72c-1.13,5.16-4.25,8.84-9.35,11.05
			c-0.53,0.06-1.1,0.01-1.71-0.15c-3.04-1.52-4.19-4.06-3.43-7.64l-0.62-1.87l1.08-2.8l0.16-0.46l0.46-1.25l0.16-0.47l1.56-2.02
			l0.31-0.31l0.82-2.05l0.59-0.21c0.44,0.57,1.26,0.49,2.48-0.23h0.47h0.46C-1121.25,537.16-1121.15,537.06-1121.05,536.88z
			 M-1121.98,542.33c-0.25,0.57-0.67,1.14-1.25,1.72l-0.77,1.25l-0.47,0.62c-0.09,0.69-0.04,1.52,0.16,2.49
			c-0.21,1.29,0,2.58,0.62,3.89c2.03-1.49,3.48-3.62,4.36-6.38C-1119.66,543.82-1120.54,542.62-1121.98,542.33z"/>
	</g>
	<g>
		
			<linearGradient id="SVGID_00000119818416581304268640000002979724978089028256_" gradientUnits="userSpaceOnUse" x1="-1193.1824" y1="548.5739" x2="-1114.8176" y2="548.5739">
			<stop  offset="0" style="stop-color:#B50100"/>
			<stop  offset="0.9673" style="stop-color:#360200"/>
		</linearGradient>
		<path style="fill:url(#SVGID_00000119818416581304268640000002979724978089028256_);" d="M-1180.94,536.88h-0.13H-1180.94
			c0.79,1.87,1.01,4.1,0.64,6.7c0.66,4.07-0.42,7.85-3.22,11.34c-0.59,0.14-1.23,0.14-1.93,0c-0.81-0.93-1.41-2.09-1.8-3.48
			l-0.52-0.9l-0.13-0.26l-0.26-0.39l-0.26-0.39c-0.95,1.59-1.51,3.48-1.68,5.67c-0.71,0.32-1.35,0.83-1.93,1.55
			c-0.14-0.75-0.52-1.44-1.16-2.06c0.04-0.61,0.17-1.34,0.39-2.19v-0.39c0.07-0.37,0.11-0.79,0.13-1.29l0.13-0.39v-0.9l0.13-0.9
			l0.13-0.39l0.13-0.77l0.13-0.9l0.13-0.9v-0.52c0.21-0.3,0.43-0.69,0.64-1.16c-0.02-0.92,0.06-1.74,0.26-2.45l0.26-0.64
			c0.35-0.47,0.87-0.95,1.55-1.42c0.98-0.33,1.97-0.16,2.96,0.52c0.14,0.86,0.01,1.76-0.39,2.71l1.16,3.22
			c0.14,0.26,0.26,0.6,0.39,1.03l0.26,0.39c0.06-0.57,0.24-1.26,0.52-2.06l0.26-1.03v-0.39l0.13-0.39l0.13-0.64l0.13-0.39l0.26-1.42
			c0.09-0.54,0.05-0.97-0.13-1.29l0.13-0.39l0.39-0.64c0.49-0.26,0.87-0.69,1.16-1.29l0.39-0.39c0.13,0.01,0.26-0.23,0.39-0.72
			L-1180.94,536.88z"/>
		
			<linearGradient id="SVGID_00000158002507459590837490000009027448277527160752_" gradientUnits="userSpaceOnUse" x1="-1193.1824" y1="548.5739" x2="-1114.8176" y2="548.5739">
			<stop  offset="0" style="stop-color:#B50100"/>
			<stop  offset="0.9673" style="stop-color:#360200"/>
		</linearGradient>
		<path style="fill:url(#SVGID_00000158002507459590837490000009027448277527160752_);" d="M-1172.19,536.88
			c0.46,0.48,1.11,0.94,1.94,1.39l-0.28,1.11c2.81,5.92,2.35,11.75-1.39,17.49l-1.01-2.47c-0.37,0.17-0.3-1.22,0.18-4.19l-3.21,0.64
			l-1.24,4.35l-1.39,1.39c-0.69-0.18-1.34-0.64-1.94-1.39l0.28-3.89c0.42-1.15,0.92-2.3,1.5-3.47l-0.14-1.36l0.53-1.32l1.24-0.75
			l1.31-3.91l1.12-1.94L-1172.19,536.88z M-1172.73,546.83l-0.68-2.64l-1.17,2.79L-1172.73,546.83z"/>
		
			<linearGradient id="SVGID_00000102527498236095116180000007741182470063539615_" gradientUnits="userSpaceOnUse" x1="-1193.1824" y1="548.5739" x2="-1114.8176" y2="548.5739">
			<stop  offset="0" style="stop-color:#B50100"/>
			<stop  offset="0.9673" style="stop-color:#360200"/>
		</linearGradient>
		<path style="fill:url(#SVGID_00000102527498236095116180000007741182470063539615_);" d="M-1163.93,536.87
			c2.4-0.04,4.79,0.8,7.18,2.54c1.41,3.66-0.55,6.74-5.88,9.24l0.66,0.59c0.44,0.84,1.09,1.59,1.96,2.23l0.78,0.6l0.26,0.15
			l0.27,0.14c0.56,0.68,1.3,1.23,2.21,1.64l0.27,0.15l0.26,0.3l0.78,0.29l0.78,0.6l0.26,0.15l0.26,0.15
			c0.27,0.4,0.67,0.75,1.18,1.04c0.2,0.36,0.5,0.71,0.91,1.04l0.39,0.29l0.26,0.15c0.02,0.1,0.11,0.2,0.27,0.3
			c0.02,0.1,0.11,0.2,0.26,0.3v1.04l-0.66,1.04l-1.7-0.3l-2.08-1.34l-0.4-0.14l-0.39-0.15l-0.26-0.3l-0.4-0.15l-1.04-0.74
			l-0.53-0.15l-0.52-0.3c-0.44-0.33-1.01-0.63-1.7-0.89l-0.53-0.45l-0.78-0.44l-0.64-0.3l-0.53-0.6l-0.52-0.29l-0.66-1.34
			c-0.42,0.71-0.72,1.65-0.91,2.83l-0.13,0.3c-0.19,0.24-0.37,0.54-0.53,0.89c-0.52,0.14-1.04,0.1-1.57-0.14
			c-0.02-0.1-0.11-0.2-0.26-0.3c0.02-0.87-0.02-1.96-0.13-3.28v-2.09l-0.13-0.44c-0.29-0.45-0.46-1.05-0.53-1.79
			c0.47-0.7,0.81-1.59,1.04-2.67C-1168.01,540.49-1166.97,537.36-1163.93,536.87z M-1163.42,540.65l-0.39,2.35v0.39
			C-1161.1,542.19-1160.97,541.28-1163.42,540.65z"/>
		
			<linearGradient id="SVGID_00000168097261687715257770000012219644845037334204_" gradientUnits="userSpaceOnUse" x1="-1193.1824" y1="548.5739" x2="-1114.8176" y2="548.5739">
			<stop  offset="0" style="stop-color:#B50100"/>
			<stop  offset="0.9673" style="stop-color:#360200"/>
		</linearGradient>
		<path style="fill:url(#SVGID_00000168097261687715257770000012219644845037334204_);" d="M-1144.01,536.73l0.16,0.45
			c1.15-0.18,2,0.27,2.58,1.35c0.04,1.55-0.33,3.3-1.13,5.24l-0.32,1.5l-0.16,0.45c0.01,0.51-0.1,1.06-0.32,1.65l-0.16,0.75
			c-0.07,0.49-0.23,1.04-0.48,1.64v0.9c-0.09,0.89,0.01,1.89,0.32,3v0.45l-0.16,0.6c-0.92,1.16-2.02,1.94-3.3,2.34l-1.53-2.04
			c-3.52,1.62-5.82,0.57-6.92-3.15c-0.09-0.59-0.09-1.34,0-2.26l0.06-2.87c-0.49-1.59-0.14-4.28,1.05-8.08l1.3-1.5
			c0.51,0.15,0.99,0.45,1.45,0.9c0.06,0.82,0.33,1.67,0.81,2.55v0.45l-0.16,3v1.5c0.04,0.57-0.01,1.27-0.16,2.11v0.6v0.44l0.48,0.75
			c0.48,0.66,1.01,0.76,1.6,0.3c0.24-0.49,0.35-1.09,0.32-1.79c0.59-0.75,0.97-1.7,1.13-2.86c0.14-0.54,0.36-1.08,0.64-1.64
			l0.16-1.05l0.16-0.75l0.32-0.75l0.32-0.75l0.16-0.75l0.32-0.74l0.32-0.9L-1144.01,536.73z"/>
		
			<linearGradient id="SVGID_00000067218805353819380860000009692078580327845767_" gradientUnits="userSpaceOnUse" x1="-1193.1824" y1="548.5739" x2="-1114.8176" y2="548.5739">
			<stop  offset="0" style="stop-color:#B50100"/>
			<stop  offset="0.9673" style="stop-color:#360200"/>
		</linearGradient>
		<path style="fill:url(#SVGID_00000067218805353819380860000009692078580327845767_);" d="M-1135.88,536.87
			c2.13-0.24,4.13,0.39,5.99,1.9c0.01,1.83-0.86,2.95-2.63,3.37c0.06,1.17-0.13,2.44-0.59,3.8v0.44c0.09,0.91-0.01,2.03-0.29,3.36
			l-0.14,0.88v1.02l-0.15,0.44l0.15,1.02v1.17c-1.02,2.66-2.19,3.1-3.51,1.32l-0.29,0.14c0.02-0.52-0.03-1.06-0.15-1.6
			c0.14-0.56,0.14-1.19,0-1.9c0.13-0.82,0.18-1.79,0.15-2.93v-4.38c-0.04-0.54,0.01-1.17,0.14-1.91c-1.73,0.16-2.85-0.57-3.36-2.19
			C-1139.81,538.78-1138.25,537.47-1135.88,536.87z"/>
		
			<linearGradient id="SVGID_00000142153028855511641410000004027728414627437724_" gradientUnits="userSpaceOnUse" x1="-1193.1824" y1="548.5739" x2="-1114.8176" y2="548.5739">
			<stop  offset="0" style="stop-color:#B50100"/>
			<stop  offset="0.9673" style="stop-color:#360200"/>
		</linearGradient>
		<path style="fill:url(#SVGID_00000142153028855511641410000004027728414627437724_);" d="M-1121.05,536.88
			c3.87,1.31,5.94,4.22,6.23,8.72c-1.13,5.16-4.25,8.84-9.35,11.05c-0.53,0.06-1.1,0.01-1.71-0.15c-3.04-1.52-4.19-4.06-3.43-7.64
			l-0.62-1.87l1.08-2.8l0.16-0.46l0.46-1.25l0.16-0.47l1.56-2.02l0.31-0.31l0.82-2.05l0.59-0.21c0.44,0.57,1.26,0.49,2.48-0.23h0.47
			h0.46C-1121.25,537.16-1121.15,537.06-1121.05,536.88z M-1121.98,542.33c-0.25,0.57-0.67,1.14-1.25,1.72l-0.77,1.25l-0.47,0.62
			c-0.09,0.69-0.04,1.52,0.16,2.49c-0.21,1.29,0,2.58,0.62,3.89c2.03-1.49,3.48-3.62,4.36-6.38
			C-1119.66,543.82-1120.54,542.62-1121.98,542.33z"/>
	</g>
</g>
<g>
	<g>
		<path d="M357.06,535.68h-0.13H357.06c0.79,1.87,1.01,4.1,0.64,6.7c0.66,4.07-0.42,7.85-3.22,11.34c-0.59,0.14-1.23,0.14-1.93,0
			c-0.81-0.93-1.41-2.09-1.8-3.48l-0.52-0.9l-0.13-0.26l-0.26-0.39l-0.26-0.39c-0.95,1.59-1.51,3.48-1.68,5.67
			c-0.71,0.32-1.35,0.83-1.93,1.55c-0.14-0.75-0.52-1.44-1.16-2.06c0.04-0.61,0.17-1.34,0.39-2.19v-0.39
			c0.07-0.37,0.11-0.79,0.13-1.29l0.13-0.39v-0.9l0.13-0.9l0.13-0.39l0.13-0.77l0.13-0.9l0.13-0.9v-0.52
			c0.21-0.3,0.43-0.69,0.64-1.16c-0.02-0.92,0.06-1.74,0.26-2.45l0.26-0.64c0.35-0.47,0.87-0.95,1.55-1.42
			c0.98-0.33,1.97-0.16,2.96,0.52c0.14,0.86,0.01,1.76-0.39,2.71l1.16,3.22c0.14,0.26,0.26,0.6,0.39,1.03l0.26,0.39
			c0.06-0.57,0.24-1.26,0.52-2.06l0.26-1.03v-0.39l0.13-0.39l0.13-0.64l0.13-0.39l0.26-1.42c0.09-0.54,0.05-0.97-0.13-1.29
			l0.13-0.39l0.39-0.64c0.49-0.26,0.87-0.69,1.16-1.29l0.39-0.39c0.13,0.01,0.26-0.23,0.39-0.72L357.06,535.68z"/>
		<path d="M365.81,535.68c0.46,0.48,1.11,0.94,1.94,1.39l-0.28,1.11c2.81,5.92,2.35,11.75-1.39,17.49l-1.01-2.47
			c-0.37,0.17-0.3-1.22,0.18-4.19l-3.21,0.64l-1.24,4.35l-1.39,1.39c-0.69-0.18-1.34-0.64-1.94-1.39l0.28-3.89
			c0.42-1.15,0.92-2.3,1.5-3.47l-0.14-1.36l0.53-1.32l1.24-0.75l1.31-3.91l1.12-1.94L365.81,535.68z M365.27,545.63l-0.68-2.64
			l-1.17,2.79L365.27,545.63z"/>
		<path d="M374.07,535.67c2.4-0.04,4.79,0.8,7.18,2.54c1.41,3.66-0.55,6.74-5.88,9.24l0.66,0.59c0.44,0.84,1.09,1.59,1.96,2.23
			l0.78,0.6l0.26,0.15l0.27,0.14c0.56,0.68,1.3,1.23,2.21,1.64l0.27,0.15l0.26,0.3l0.78,0.29l0.78,0.6l0.26,0.15l0.26,0.15
			c0.27,0.4,0.67,0.75,1.18,1.04c0.2,0.36,0.5,0.71,0.91,1.04l0.39,0.29l0.26,0.15c0.02,0.1,0.11,0.2,0.27,0.3
			c0.02,0.1,0.11,0.2,0.26,0.3v1.04l-0.66,1.04l-1.7-0.3l-2.08-1.34l-0.4-0.14l-0.39-0.15l-0.26-0.3l-0.4-0.15l-1.04-0.74
			l-0.53-0.15l-0.52-0.3c-0.44-0.33-1.01-0.63-1.7-0.89l-0.53-0.45l-0.78-0.44l-0.64-0.3l-0.53-0.6l-0.52-0.29l-0.66-1.34
			c-0.42,0.71-0.72,1.65-0.91,2.83l-0.13,0.3c-0.19,0.24-0.37,0.54-0.53,0.89c-0.52,0.14-1.04,0.1-1.57-0.14
			c-0.02-0.1-0.11-0.2-0.26-0.3c0.02-0.87-0.02-1.96-0.13-3.28v-2.09l-0.13-0.44c-0.29-0.45-0.46-1.05-0.53-1.79
			c0.47-0.7,0.81-1.59,1.04-2.67C369.99,539.29,371.03,536.16,374.07,535.67z M374.58,539.45l-0.39,2.35v0.39
			C376.9,541,377.03,540.08,374.58,539.45z"/>
		<path d="M393.99,535.53l0.16,0.45c1.15-0.18,2,0.27,2.58,1.35c0.04,1.55-0.33,3.3-1.13,5.24l-0.32,1.5l-0.16,0.45
			c0.01,0.51-0.1,1.06-0.32,1.65l-0.16,0.75c-0.07,0.49-0.23,1.04-0.48,1.64v0.9c-0.09,0.89,0.01,1.89,0.32,3v0.45l-0.16,0.6
			c-0.92,1.16-2.02,1.94-3.3,2.34l-1.53-2.04c-3.52,1.62-5.82,0.57-6.92-3.15c-0.09-0.59-0.09-1.34,0-2.26l0.06-2.87
			c-0.49-1.59-0.14-4.28,1.05-8.08l1.3-1.5c0.51,0.15,0.99,0.45,1.45,0.9c0.06,0.82,0.33,1.67,0.81,2.55v0.45l-0.16,3v1.5
			c0.04,0.57-0.01,1.27-0.16,2.11v0.6v0.44l0.48,0.75c0.48,0.66,1.01,0.76,1.6,0.3c0.24-0.49,0.35-1.09,0.32-1.79
			c0.59-0.75,0.97-1.7,1.13-2.86c0.14-0.54,0.36-1.08,0.64-1.64l0.16-1.05l0.16-0.75l0.32-0.75l0.32-0.75l0.16-0.75l0.32-0.74
			l0.32-0.9L393.99,535.53z"/>
		<path d="M402.12,535.67c2.13-0.24,4.13,0.39,5.99,1.9c0.01,1.83-0.86,2.95-2.63,3.37c0.06,1.17-0.13,2.44-0.59,3.8v0.44
			c0.09,0.91-0.01,2.03-0.29,3.36l-0.14,0.88v1.02l-0.15,0.44l0.15,1.02v1.17c-1.02,2.66-2.19,3.1-3.51,1.32l-0.29,0.14
			c0.02-0.52-0.03-1.06-0.15-1.6c0.14-0.56,0.14-1.19,0-1.9c0.13-0.82,0.18-1.79,0.15-2.93v-4.38c-0.04-0.54,0.01-1.17,0.14-1.91
			c-1.73,0.16-2.85-0.57-3.36-2.19C398.19,537.58,399.75,536.27,402.12,535.67z"/>
		<path d="M416.95,535.68c3.87,1.31,5.94,4.22,6.23,8.72c-1.13,5.16-4.25,8.84-9.35,11.05c-0.53,0.06-1.1,0.01-1.71-0.15
			c-3.04-1.52-4.19-4.06-3.43-7.64l-0.62-1.87l1.08-2.8l0.16-0.46l0.46-1.25l0.16-0.47l1.56-2.02l0.31-0.31l0.82-2.05l0.59-0.21
			c0.44,0.57,1.26,0.49,2.48-0.23h0.47h0.46C416.75,535.97,416.85,535.86,416.95,535.68z M416.02,541.13
			c-0.25,0.57-0.67,1.14-1.25,1.72l-0.77,1.25l-0.47,0.62c-0.09,0.69-0.04,1.52,0.16,2.49c-0.21,1.29,0,2.58,0.62,3.89
			c2.03-1.49,3.48-3.62,4.36-6.38C418.34,542.62,417.46,541.42,416.02,541.13z"/>
	</g>
	<g>
		<path class="st9" d="M357.06,535.68h-0.13H357.06c0.79,1.87,1.01,4.1,0.64,6.7c0.66,4.07-0.42,7.85-3.22,11.34
			c-0.59,0.14-1.23,0.14-1.93,0c-0.81-0.93-1.41-2.09-1.8-3.48l-0.52-0.9l-0.13-0.26l-0.26-0.39l-0.26-0.39
			c-0.95,1.59-1.51,3.48-1.68,5.67c-0.71,0.32-1.35,0.83-1.93,1.55c-0.14-0.75-0.52-1.44-1.16-2.06c0.04-0.61,0.17-1.34,0.39-2.19
			v-0.39c0.07-0.37,0.11-0.79,0.13-1.29l0.13-0.39v-0.9l0.13-0.9l0.13-0.39l0.13-0.77l0.13-0.9l0.13-0.9v-0.52
			c0.21-0.3,0.43-0.69,0.64-1.16c-0.02-0.92,0.06-1.74,0.26-2.45l0.26-0.64c0.35-0.47,0.87-0.95,1.55-1.42
			c0.98-0.33,1.97-0.16,2.96,0.52c0.14,0.86,0.01,1.76-0.39,2.71l1.16,3.22c0.14,0.26,0.26,0.6,0.39,1.03l0.26,0.39
			c0.06-0.57,0.24-1.26,0.52-2.06l0.26-1.03v-0.39l0.13-0.39l0.13-0.64l0.13-0.39l0.26-1.42c0.09-0.54,0.05-0.97-0.13-1.29
			l0.13-0.39l0.39-0.64c0.49-0.26,0.87-0.69,1.16-1.29l0.39-0.39c0.13,0.01,0.26-0.23,0.39-0.72L357.06,535.68z"/>
		<path class="st9" d="M365.81,535.68c0.46,0.48,1.11,0.94,1.94,1.39l-0.28,1.11c2.81,5.92,2.35,11.75-1.39,17.49l-1.01-2.47
			c-0.37,0.17-0.3-1.22,0.18-4.19l-3.21,0.64l-1.24,4.35l-1.39,1.39c-0.69-0.18-1.34-0.64-1.94-1.39l0.28-3.89
			c0.42-1.15,0.92-2.3,1.5-3.47l-0.14-1.36l0.53-1.32l1.24-0.75l1.31-3.91l1.12-1.94L365.81,535.68z M365.27,545.63l-0.68-2.64
			l-1.17,2.79L365.27,545.63z"/>
		<path class="st9" d="M374.07,535.67c2.4-0.04,4.79,0.8,7.18,2.54c1.41,3.66-0.55,6.74-5.88,9.24l0.66,0.59
			c0.44,0.84,1.09,1.59,1.96,2.23l0.78,0.6l0.26,0.15l0.27,0.14c0.56,0.68,1.3,1.23,2.21,1.64l0.27,0.15l0.26,0.3l0.78,0.29
			l0.78,0.6l0.26,0.15l0.26,0.15c0.27,0.4,0.67,0.75,1.18,1.04c0.2,0.36,0.5,0.71,0.91,1.04l0.39,0.29l0.26,0.15
			c0.02,0.1,0.11,0.2,0.27,0.3c0.02,0.1,0.11,0.2,0.26,0.3v1.04l-0.66,1.04l-1.7-0.3l-2.08-1.34l-0.4-0.14l-0.39-0.15l-0.26-0.3
			l-0.4-0.15l-1.04-0.74l-0.53-0.15l-0.52-0.3c-0.44-0.33-1.01-0.63-1.7-0.89l-0.53-0.45l-0.78-0.44l-0.64-0.3l-0.53-0.6l-0.52-0.29
			l-0.66-1.34c-0.42,0.71-0.72,1.65-0.91,2.83l-0.13,0.3c-0.19,0.24-0.37,0.54-0.53,0.89c-0.52,0.14-1.04,0.1-1.57-0.14
			c-0.02-0.1-0.11-0.2-0.26-0.3c0.02-0.87-0.02-1.96-0.13-3.28v-2.09l-0.13-0.44c-0.29-0.45-0.46-1.05-0.53-1.79
			c0.47-0.7,0.81-1.59,1.04-2.67C369.99,539.29,371.03,536.16,374.07,535.67z M374.58,539.45l-0.39,2.35v0.39
			C376.9,541,377.03,540.08,374.58,539.45z"/>
		<path class="st9" d="M393.99,535.53l0.16,0.45c1.15-0.18,2,0.27,2.58,1.35c0.04,1.55-0.33,3.3-1.13,5.24l-0.32,1.5l-0.16,0.45
			c0.01,0.51-0.1,1.06-0.32,1.65l-0.16,0.75c-0.07,0.49-0.23,1.04-0.48,1.64v0.9c-0.09,0.89,0.01,1.89,0.32,3v0.45l-0.16,0.6
			c-0.92,1.16-2.02,1.94-3.3,2.34l-1.53-2.04c-3.52,1.62-5.82,0.57-6.92-3.15c-0.09-0.59-0.09-1.34,0-2.26l0.06-2.87
			c-0.49-1.59-0.14-4.28,1.05-8.08l1.3-1.5c0.51,0.15,0.99,0.45,1.45,0.9c0.06,0.82,0.33,1.67,0.81,2.55v0.45l-0.16,3v1.5
			c0.04,0.57-0.01,1.27-0.16,2.11v0.6v0.44l0.48,0.75c0.48,0.66,1.01,0.76,1.6,0.3c0.24-0.49,0.35-1.09,0.32-1.79
			c0.59-0.75,0.97-1.7,1.13-2.86c0.14-0.54,0.36-1.08,0.64-1.64l0.16-1.05l0.16-0.75l0.32-0.75l0.32-0.75l0.16-0.75l0.32-0.74
			l0.32-0.9L393.99,535.53z"/>
		<path class="st9" d="M402.12,535.67c2.13-0.24,4.13,0.39,5.99,1.9c0.01,1.83-0.86,2.95-2.63,3.37c0.06,1.17-0.13,2.44-0.59,3.8
			v0.44c0.09,0.91-0.01,2.03-0.29,3.36l-0.14,0.88v1.02l-0.15,0.44l0.15,1.02v1.17c-1.02,2.66-2.19,3.1-3.51,1.32l-0.29,0.14
			c0.02-0.52-0.03-1.06-0.15-1.6c0.14-0.56,0.14-1.19,0-1.9c0.13-0.82,0.18-1.79,0.15-2.93v-4.38c-0.04-0.54,0.01-1.17,0.14-1.91
			c-1.73,0.16-2.85-0.57-3.36-2.19C398.19,537.58,399.75,536.27,402.12,535.67z"/>
		<path class="st9" d="M416.95,535.68c3.87,1.31,5.94,4.22,6.23,8.72c-1.13,5.16-4.25,8.84-9.35,11.05
			c-0.53,0.06-1.1,0.01-1.71-0.15c-3.04-1.52-4.19-4.06-3.43-7.64l-0.62-1.87l1.08-2.8l0.16-0.46l0.46-1.25l0.16-0.47l1.56-2.02
			l0.31-0.31l0.82-2.05l0.59-0.21c0.44,0.57,1.26,0.49,2.48-0.23h0.47h0.46C416.75,535.97,416.85,535.86,416.95,535.68z
			 M416.02,541.13c-0.25,0.57-0.67,1.14-1.25,1.72l-0.77,1.25l-0.47,0.62c-0.09,0.69-0.04,1.52,0.16,2.49
			c-0.21,1.29,0,2.58,0.62,3.89c2.03-1.49,3.48-3.62,4.36-6.38C418.34,542.62,417.46,541.42,416.02,541.13z"/>
	</g>
	<g>
		<path class="st10" d="M357.06,535.68h-0.13H357.06c0.79,1.87,1.01,4.1,0.64,6.7c0.66,4.07-0.42,7.85-3.22,11.34
			c-0.59,0.14-1.23,0.14-1.93,0c-0.81-0.93-1.41-2.09-1.8-3.48l-0.52-0.9l-0.13-0.26l-0.26-0.39l-0.26-0.39
			c-0.95,1.59-1.51,3.48-1.68,5.67c-0.71,0.32-1.35,0.83-1.93,1.55c-0.14-0.75-0.52-1.44-1.16-2.06c0.04-0.61,0.17-1.34,0.39-2.19
			v-0.39c0.07-0.37,0.11-0.79,0.13-1.29l0.13-0.39v-0.9l0.13-0.9l0.13-0.39l0.13-0.77l0.13-0.9l0.13-0.9v-0.52
			c0.21-0.3,0.43-0.69,0.64-1.16c-0.02-0.92,0.06-1.74,0.26-2.45l0.26-0.64c0.35-0.47,0.87-0.95,1.55-1.42
			c0.98-0.33,1.97-0.16,2.96,0.52c0.14,0.86,0.01,1.76-0.39,2.71l1.16,3.22c0.14,0.26,0.26,0.6,0.39,1.03l0.26,0.39
			c0.06-0.57,0.24-1.26,0.52-2.06l0.26-1.03v-0.39l0.13-0.39l0.13-0.64l0.13-0.39l0.26-1.42c0.09-0.54,0.05-0.97-0.13-1.29
			l0.13-0.39l0.39-0.64c0.49-0.26,0.87-0.69,1.16-1.29l0.39-0.39c0.13,0.01,0.26-0.23,0.39-0.72L357.06,535.68z"/>
		<path class="st10" d="M365.81,535.68c0.46,0.48,1.11,0.94,1.94,1.39l-0.28,1.11c2.81,5.92,2.35,11.75-1.39,17.49l-1.01-2.47
			c-0.37,0.17-0.3-1.22,0.18-4.19l-3.21,0.64l-1.24,4.35l-1.39,1.39c-0.69-0.18-1.34-0.64-1.94-1.39l0.28-3.89
			c0.42-1.15,0.92-2.3,1.5-3.47l-0.14-1.36l0.53-1.32l1.24-0.75l1.31-3.91l1.12-1.94L365.81,535.68z M365.27,545.63l-0.68-2.64
			l-1.17,2.79L365.27,545.63z"/>
		<path class="st10" d="M374.07,535.67c2.4-0.04,4.79,0.8,7.18,2.54c1.41,3.66-0.55,6.74-5.88,9.24l0.66,0.59
			c0.44,0.84,1.09,1.59,1.96,2.23l0.78,0.6l0.26,0.15l0.27,0.14c0.56,0.68,1.3,1.23,2.21,1.64l0.27,0.15l0.26,0.3l0.78,0.29
			l0.78,0.6l0.26,0.15l0.26,0.15c0.27,0.4,0.67,0.75,1.18,1.04c0.2,0.36,0.5,0.71,0.91,1.04l0.39,0.29l0.26,0.15
			c0.02,0.1,0.11,0.2,0.27,0.3c0.02,0.1,0.11,0.2,0.26,0.3v1.04l-0.66,1.04l-1.7-0.3l-2.08-1.34l-0.4-0.14l-0.39-0.15l-0.26-0.3
			l-0.4-0.15l-1.04-0.74l-0.53-0.15l-0.52-0.3c-0.44-0.33-1.01-0.63-1.7-0.89l-0.53-0.45l-0.78-0.44l-0.64-0.3l-0.53-0.6l-0.52-0.29
			l-0.66-1.34c-0.42,0.71-0.72,1.65-0.91,2.83l-0.13,0.3c-0.19,0.24-0.37,0.54-0.53,0.89c-0.52,0.14-1.04,0.1-1.57-0.14
			c-0.02-0.1-0.11-0.2-0.26-0.3c0.02-0.87-0.02-1.96-0.13-3.28v-2.09l-0.13-0.44c-0.29-0.45-0.46-1.05-0.53-1.79
			c0.47-0.7,0.81-1.59,1.04-2.67C369.99,539.29,371.03,536.16,374.07,535.67z M374.58,539.45l-0.39,2.35v0.39
			C376.9,541,377.03,540.08,374.58,539.45z"/>
		<path class="st10" d="M393.99,535.53l0.16,0.45c1.15-0.18,2,0.27,2.58,1.35c0.04,1.55-0.33,3.3-1.13,5.24l-0.32,1.5l-0.16,0.45
			c0.01,0.51-0.1,1.06-0.32,1.65l-0.16,0.75c-0.07,0.49-0.23,1.04-0.48,1.64v0.9c-0.09,0.89,0.01,1.89,0.32,3v0.45l-0.16,0.6
			c-0.92,1.16-2.02,1.94-3.3,2.34l-1.53-2.04c-3.52,1.62-5.82,0.57-6.92-3.15c-0.09-0.59-0.09-1.34,0-2.26l0.06-2.87
			c-0.49-1.59-0.14-4.28,1.05-8.08l1.3-1.5c0.51,0.15,0.99,0.45,1.45,0.9c0.06,0.82,0.33,1.67,0.81,2.55v0.45l-0.16,3v1.5
			c0.04,0.57-0.01,1.27-0.16,2.11v0.6v0.44l0.48,0.75c0.48,0.66,1.01,0.76,1.6,0.3c0.24-0.49,0.35-1.09,0.32-1.79
			c0.59-0.75,0.97-1.7,1.13-2.86c0.14-0.54,0.36-1.08,0.64-1.64l0.16-1.05l0.16-0.75l0.32-0.75l0.32-0.75l0.16-0.75l0.32-0.74
			l0.32-0.9L393.99,535.53z"/>
		<path class="st10" d="M402.12,535.67c2.13-0.24,4.13,0.39,5.99,1.9c0.01,1.83-0.86,2.95-2.63,3.37c0.06,1.17-0.13,2.44-0.59,3.8
			v0.44c0.09,0.91-0.01,2.03-0.29,3.36l-0.14,0.88v1.02l-0.15,0.44l0.15,1.02v1.17c-1.02,2.66-2.19,3.1-3.51,1.32l-0.29,0.14
			c0.02-0.52-0.03-1.06-0.15-1.6c0.14-0.56,0.14-1.19,0-1.9c0.13-0.82,0.18-1.79,0.15-2.93v-4.38c-0.04-0.54,0.01-1.17,0.14-1.91
			c-1.73,0.16-2.85-0.57-3.36-2.19C398.19,537.58,399.75,536.27,402.12,535.67z"/>
		<path class="st10" d="M416.95,535.68c3.87,1.31,5.94,4.22,6.23,8.72c-1.13,5.16-4.25,8.84-9.35,11.05
			c-0.53,0.06-1.1,0.01-1.71-0.15c-3.04-1.52-4.19-4.06-3.43-7.64l-0.62-1.87l1.08-2.8l0.16-0.46l0.46-1.25l0.16-0.47l1.56-2.02
			l0.31-0.31l0.82-2.05l0.59-0.21c0.44,0.57,1.26,0.49,2.48-0.23h0.47h0.46C416.75,535.97,416.85,535.86,416.95,535.68z
			 M416.02,541.13c-0.25,0.57-0.67,1.14-1.25,1.72l-0.77,1.25l-0.47,0.62c-0.09,0.69-0.04,1.52,0.16,2.49
			c-0.21,1.29,0,2.58,0.62,3.89c2.03-1.49,3.48-3.62,4.36-6.38C418.34,542.62,417.46,541.42,416.02,541.13z"/>
	</g>
	<g>
		
			<linearGradient id="SVGID_00000002380975166854716790000001328952149848401330_" gradientUnits="userSpaceOnUse" x1="344.8176" y1="547.3761" x2="423.1824" y2="547.3761">
			<stop  offset="0" style="stop-color:#A36FA5"/>
			<stop  offset="0.4095" style="stop-color:#732F79"/>
			<stop  offset="1" style="stop-color:#390059"/>
		</linearGradient>
		<path style="fill:url(#SVGID_00000002380975166854716790000001328952149848401330_);" d="M357.06,535.68h-0.13H357.06
			c0.79,1.87,1.01,4.1,0.64,6.7c0.66,4.07-0.42,7.85-3.22,11.34c-0.59,0.14-1.23,0.14-1.93,0c-0.81-0.93-1.41-2.09-1.8-3.48
			l-0.52-0.9l-0.13-0.26l-0.26-0.39l-0.26-0.39c-0.95,1.59-1.51,3.48-1.68,5.67c-0.71,0.32-1.35,0.83-1.93,1.55
			c-0.14-0.75-0.52-1.44-1.16-2.06c0.04-0.61,0.17-1.34,0.39-2.19v-0.39c0.07-0.37,0.11-0.79,0.13-1.29l0.13-0.39v-0.9l0.13-0.9
			l0.13-0.39l0.13-0.77l0.13-0.9l0.13-0.9v-0.52c0.21-0.3,0.43-0.69,0.64-1.16c-0.02-0.92,0.06-1.74,0.26-2.45l0.26-0.64
			c0.35-0.47,0.87-0.95,1.55-1.42c0.98-0.33,1.97-0.16,2.96,0.52c0.14,0.86,0.01,1.76-0.39,2.71l1.16,3.22
			c0.14,0.26,0.26,0.6,0.39,1.03l0.26,0.39c0.06-0.57,0.24-1.26,0.52-2.06l0.26-1.03v-0.39l0.13-0.39l0.13-0.64l0.13-0.39l0.26-1.42
			c0.09-0.54,0.05-0.97-0.13-1.29l0.13-0.39l0.39-0.64c0.49-0.26,0.87-0.69,1.16-1.29l0.39-0.39c0.13,0.01,0.26-0.23,0.39-0.72
			L357.06,535.68z"/>
		
			<linearGradient id="SVGID_00000085961653871532213180000008623665993717913774_" gradientUnits="userSpaceOnUse" x1="344.8176" y1="547.3761" x2="423.1824" y2="547.3761">
			<stop  offset="0" style="stop-color:#A36FA5"/>
			<stop  offset="0.4095" style="stop-color:#732F79"/>
			<stop  offset="1" style="stop-color:#390059"/>
		</linearGradient>
		<path style="fill:url(#SVGID_00000085961653871532213180000008623665993717913774_);" d="M365.81,535.68
			c0.46,0.48,1.11,0.94,1.94,1.39l-0.28,1.11c2.81,5.92,2.35,11.75-1.39,17.49l-1.01-2.47c-0.37,0.17-0.3-1.22,0.18-4.19l-3.21,0.64
			l-1.24,4.35l-1.39,1.39c-0.69-0.18-1.34-0.64-1.94-1.39l0.28-3.89c0.42-1.15,0.92-2.3,1.5-3.47l-0.14-1.36l0.53-1.32l1.24-0.75
			l1.31-3.91l1.12-1.94L365.81,535.68z M365.27,545.63l-0.68-2.64l-1.17,2.79L365.27,545.63z"/>
		
			<linearGradient id="SVGID_00000085235305475833720650000007022593271076005286_" gradientUnits="userSpaceOnUse" x1="344.8176" y1="547.3761" x2="423.1824" y2="547.3761">
			<stop  offset="0" style="stop-color:#A36FA5"/>
			<stop  offset="0.4095" style="stop-color:#732F79"/>
			<stop  offset="1" style="stop-color:#390059"/>
		</linearGradient>
		<path style="fill:url(#SVGID_00000085235305475833720650000007022593271076005286_);" d="M374.07,535.67
			c2.4-0.04,4.79,0.8,7.18,2.54c1.41,3.66-0.55,6.74-5.88,9.24l0.66,0.59c0.44,0.84,1.09,1.59,1.96,2.23l0.78,0.6l0.26,0.15
			l0.27,0.14c0.56,0.68,1.3,1.23,2.21,1.64l0.27,0.15l0.26,0.3l0.78,0.29l0.78,0.6l0.26,0.15l0.26,0.15
			c0.27,0.4,0.67,0.75,1.18,1.04c0.2,0.36,0.5,0.71,0.91,1.04l0.39,0.29l0.26,0.15c0.02,0.1,0.11,0.2,0.27,0.3
			c0.02,0.1,0.11,0.2,0.26,0.3v1.04l-0.66,1.04l-1.7-0.3l-2.08-1.34l-0.4-0.14l-0.39-0.15l-0.26-0.3l-0.4-0.15l-1.04-0.74
			l-0.53-0.15l-0.52-0.3c-0.44-0.33-1.01-0.63-1.7-0.89l-0.53-0.45l-0.78-0.44l-0.64-0.3l-0.53-0.6l-0.52-0.29l-0.66-1.34
			c-0.42,0.71-0.72,1.65-0.91,2.83l-0.13,0.3c-0.19,0.24-0.37,0.54-0.53,0.89c-0.52,0.14-1.04,0.1-1.57-0.14
			c-0.02-0.1-0.11-0.2-0.26-0.3c0.02-0.87-0.02-1.96-0.13-3.28v-2.09l-0.13-0.44c-0.29-0.45-0.46-1.05-0.53-1.79
			c0.47-0.7,0.81-1.59,1.04-2.67C369.99,539.29,371.03,536.16,374.07,535.67z M374.58,539.45l-0.39,2.35v0.39
			C376.9,541,377.03,540.08,374.58,539.45z"/>
		
			<linearGradient id="SVGID_00000004533740076201298700000008329734958077463951_" gradientUnits="userSpaceOnUse" x1="344.8176" y1="547.3761" x2="423.1824" y2="547.3761">
			<stop  offset="0" style="stop-color:#A36FA5"/>
			<stop  offset="0.4095" style="stop-color:#732F79"/>
			<stop  offset="1" style="stop-color:#390059"/>
		</linearGradient>
		<path style="fill:url(#SVGID_00000004533740076201298700000008329734958077463951_);" d="M393.99,535.53l0.16,0.45
			c1.15-0.18,2,0.27,2.58,1.35c0.04,1.55-0.33,3.3-1.13,5.24l-0.32,1.5l-0.16,0.45c0.01,0.51-0.1,1.06-0.32,1.65l-0.16,0.75
			c-0.07,0.49-0.23,1.04-0.48,1.64v0.9c-0.09,0.89,0.01,1.89,0.32,3v0.45l-0.16,0.6c-0.92,1.16-2.02,1.94-3.3,2.34l-1.53-2.04
			c-3.52,1.62-5.82,0.57-6.92-3.15c-0.09-0.59-0.09-1.34,0-2.26l0.06-2.87c-0.49-1.59-0.14-4.28,1.05-8.08l1.3-1.5
			c0.51,0.15,0.99,0.45,1.45,0.9c0.06,0.82,0.33,1.67,0.81,2.55v0.45l-0.16,3v1.5c0.04,0.57-0.01,1.27-0.16,2.11v0.6v0.44l0.48,0.75
			c0.48,0.66,1.01,0.76,1.6,0.3c0.24-0.49,0.35-1.09,0.32-1.79c0.59-0.75,0.97-1.7,1.13-2.86c0.14-0.54,0.36-1.08,0.64-1.64
			l0.16-1.05l0.16-0.75l0.32-0.75l0.32-0.75l0.16-0.75l0.32-0.74l0.32-0.9L393.99,535.53z"/>
		
			<linearGradient id="SVGID_00000032622358132876801790000000877980955794342308_" gradientUnits="userSpaceOnUse" x1="344.8176" y1="547.3761" x2="423.1824" y2="547.3761">
			<stop  offset="0" style="stop-color:#A36FA5"/>
			<stop  offset="0.4095" style="stop-color:#732F79"/>
			<stop  offset="1" style="stop-color:#390059"/>
		</linearGradient>
		<path style="fill:url(#SVGID_00000032622358132876801790000000877980955794342308_);" d="M402.12,535.67
			c2.13-0.24,4.13,0.39,5.99,1.9c0.01,1.83-0.86,2.95-2.63,3.37c0.06,1.17-0.13,2.44-0.59,3.8v0.44c0.09,0.91-0.01,2.03-0.29,3.36
			l-0.14,0.88v1.02l-0.15,0.44l0.15,1.02v1.17c-1.02,2.66-2.19,3.1-3.51,1.32l-0.29,0.14c0.02-0.52-0.03-1.06-0.15-1.6
			c0.14-0.56,0.14-1.19,0-1.9c0.13-0.82,0.18-1.79,0.15-2.93v-4.38c-0.04-0.54,0.01-1.17,0.14-1.91c-1.73,0.16-2.85-0.57-3.36-2.19
			C398.19,537.58,399.75,536.27,402.12,535.67z"/>
		
			<linearGradient id="SVGID_00000054971828575094803590000012373510781060670130_" gradientUnits="userSpaceOnUse" x1="344.8176" y1="547.3761" x2="423.1824" y2="547.3761">
			<stop  offset="0" style="stop-color:#A36FA5"/>
			<stop  offset="0.4095" style="stop-color:#732F79"/>
			<stop  offset="1" style="stop-color:#390059"/>
		</linearGradient>
		<path style="fill:url(#SVGID_00000054971828575094803590000012373510781060670130_);" d="M416.95,535.68
			c3.87,1.31,5.94,4.22,6.23,8.72c-1.13,5.16-4.25,8.84-9.35,11.05c-0.53,0.06-1.1,0.01-1.71-0.15c-3.04-1.52-4.19-4.06-3.43-7.64
			l-0.62-1.87l1.08-2.8l0.16-0.46l0.46-1.25l0.16-0.47l1.56-2.02l0.31-0.31l0.82-2.05l0.59-0.21c0.44,0.57,1.26,0.49,2.48-0.23h0.47
			h0.46C416.75,535.97,416.85,535.86,416.95,535.68z M416.02,541.13c-0.25,0.57-0.67,1.14-1.25,1.72l-0.77,1.25l-0.47,0.62
			c-0.09,0.69-0.04,1.52,0.16,2.49c-0.21,1.29,0,2.58,0.62,3.89c2.03-1.49,3.48-3.62,4.36-6.38
			C418.34,542.62,417.46,541.42,416.02,541.13z"/>
	</g>
</g>
</svg>
